<svg width="367" height="249" viewBox="0 0 367 249" fill="none" xmlns="http://www.w3.org/2000/svg">
<path d="M97.7239 143.709L109.04 142.128C109.04 142.128 112.881 136.568 112.788 134.974C112.752 134.346 111.267 133.255 109.484 132.167C109.423 132.13 109.36 132.088 109.293 132.053C108.134 131.351 106.859 130.652 105.785 130.085C104.733 129.535 103.874 129.108 103.494 128.919C103.442 128.896 103.402 128.874 103.369 128.857C103.311 128.83 103.278 128.812 103.278 128.812L100.858 135.31L100.852 135.311L100.56 136.101L97.7239 143.709Z" fill="#4B5426"/>
<path d="M101.964 71.6196C105.49 90.5138 105.608 114.501 93.0872 137.035C94.0375 136.665 95.0081 136.35 95.9942 136.091C97.5825 135.664 99.2106 135.403 100.852 135.311L100.858 135.309C100.879 135.308 100.901 135.307 100.923 135.306C101.773 135.265 102.624 135.291 103.47 135.383C105.185 135.575 106.456 136.076 107.025 136.791C107.249 137.063 107.366 137.406 107.353 137.758C107.282 139.341 104.571 141.509 97.7239 143.709C104.783 144.946 109.598 144.568 112.677 143.86C115.903 143.124 117.224 142.026 117.224 142.026C117.224 142.026 127.683 104.998 116.761 67.4121C111.881 69.0074 106.957 70.4464 101.964 71.6196Z" fill="#7D8C48"/>
<path d="M106.496 71.2822C107.107 73.9374 107.631 76.6156 108.014 79.3158C108.431 82.0106 108.756 84.7224 108.921 87.446C109.21 92.8924 109.2 98.3506 108.89 103.796C108.608 109.253 107.805 114.67 106.495 119.974C105.18 125.277 103.298 130.424 100.88 135.323L100.832 135.301C102.971 130.301 104.688 125.13 105.963 119.843C107.244 114.561 108.126 109.19 108.6 103.775C109.102 98.3555 108.988 92.8905 108.482 87.4784C108.075 82.0556 107.336 76.6669 106.444 71.2927L106.496 71.2822Z" fill="#3F5605"/>
<path d="M111.538 69.875L112.544 74.0759L113.349 78.3215L114.009 82.5936C114.192 84.023 114.299 85.4617 114.447 86.8944C114.9 92.6421 114.932 98.4088 114.732 104.165C114.519 109.931 113.806 115.668 112.601 121.311C111.407 126.956 109.657 132.469 107.376 137.769L107.327 137.749C109.313 132.356 110.906 126.826 112.095 121.203C113.295 115.588 114.032 109.881 114.441 104.15C114.853 98.4129 114.637 92.6438 114.046 86.9309C113.715 84.0768 113.394 81.225 112.989 78.3794C112.544 75.5401 112.019 72.7163 111.487 69.8869L111.538 69.875Z" fill="#3F5605"/>
<g opacity="0.3" style="mix-blend-mode:soft-light">
<path d="M111.341 69.1103C118.208 97.1457 114.585 116.982 110.813 128.043C110.811 128.051 110.808 128.06 110.804 128.068C110.297 129.556 109.785 130.88 109.293 132.053C108.624 133.673 107.867 135.255 107.025 136.792C106.445 137.842 106.084 138.369 106.084 138.369L100.806 140.194C101.778 138.629 102.664 137.019 103.47 135.384C104.329 133.648 105.101 131.882 105.785 130.085C113.86 108.922 110.594 84.071 107.626 70.1736C107.441 70.2243 107.257 70.2748 107.073 70.3251C108.155 76.8866 108.758 83.518 108.877 90.1668C109.178 107.652 105.945 121.05 103.369 128.857C102.847 130.439 102.353 131.785 101.92 132.895C101.905 132.939 101.889 132.977 101.87 133.022C101.503 133.968 101.175 134.729 100.923 135.307C100.779 135.634 100.66 135.898 100.56 136.101L97.7239 143.709C104.783 144.946 109.598 144.569 112.677 143.861C123.316 114.017 117.147 84.4333 112.244 68.8408C111.944 68.9321 111.642 69.0205 111.341 69.1103Z" fill="black"/>
</g>
<g opacity="0.3" style="mix-blend-mode:soft-light">
<path d="M101.964 71.6195C105.49 90.5138 105.608 114.501 93.0872 137.035C94.0375 136.665 95.0081 136.35 95.9942 136.09C110.065 112.979 105.728 84.9031 103.584 71.2314C103.045 71.3647 102.504 71.4925 101.964 71.6195Z" fill="black"/>
</g>
<path d="M124.202 225.143C128.357 229.969 132.351 227.471 154.29 224.651C176.238 221.821 178.397 220.929 178.397 220.929V217.544C178.397 217.217 178.271 216.901 178.047 216.663C177.822 216.425 177.515 216.281 177.187 216.262L122.945 213.079L118.152 212.799C119.223 216.112 121.364 221.855 124.202 225.143Z" fill="#4F4F4F"/>
<path d="M341.236 231.048L340.333 232.201L338.375 234.706H31.4626L28.0658 232.201L25.7642 230.506L33.9973 226.888L69.6679 224.138L97.8397 221.959H97.8455L99.1855 221.86L148.828 223.066L166.215 223.486L167.759 223.527L168.447 223.544L176.942 223.748L240.144 225.28H240.208L296.19 226.643L333.533 227.552L341.236 231.048Z" fill="#D89E1D"/>
<path d="M341.236 231.048L340.333 232.201H28.0658L25.7642 230.506L33.9973 226.888L58.9587 215.912H307.884L321.274 221.988L333.533 227.552L341.236 231.048Z" fill="#AA7143"/>
<g opacity="0.5" style="mix-blend-mode:soft-light">
<path d="M327.349 224.746L131.039 228.762L135.369 227.797L97.8454 221.959H97.8396L58.9586 215.912H307.884L327.349 224.746Z" fill="black"/>
</g>
<path d="M179.879 196.605L185.408 200.916L184.435 204.272C184.435 204.272 179.535 209.078 178.195 209.719C176.855 210.348 162.539 211.624 128.237 212.743C93.9416 213.861 102.029 182.687 102.384 172.935C102.711 164.062 110.128 148.624 113.676 142.921C114.032 142.35 114.346 141.878 114.614 141.517C114.835 141.227 115.083 140.96 115.354 140.718C115.909 140.212 116.492 139.74 117.102 139.303C117.749 138.831 118.478 138.342 119.27 137.835C119.8 137.485 120.365 137.136 120.948 136.78C122.358 135.93 123.885 135.044 125.423 134.194C125.432 134.186 125.442 134.181 125.452 134.176C127.107 133.261 128.767 132.37 130.312 131.566C130.556 131.432 130.801 131.31 131.04 131.182C133.738 129.783 135.969 128.677 136.966 128.187C137.327 128.012 137.531 127.913 137.531 127.913L135.94 121.825L135.095 118.604L137.292 113.774L155.657 112.871L155.995 119.751L156.595 131.846C156.595 131.846 158.547 132.947 161.478 134.677C166.174 137.468 173.359 141.913 178.958 146.125C180.59 147.354 182.087 148.56 183.346 149.702C190.996 161.353 195.459 175.015 196.782 187.168C196.922 188.472 197.026 189.756 197.096 191.018C186.032 196.565 174.174 191.98 173.708 191.799L179.879 196.605Z" fill="#E5E5E5"/>
<path d="M198.477 216.926C198.093 223.259 163.302 220.684 148.846 219.361C145.88 219.088 143.771 218.872 142.99 218.79C135.078 220.323 125.365 220.876 121.688 218.773C118.006 216.67 122.813 209.207 126.577 206.818C130.341 204.424 131.005 204.01 133.708 204.867C136.412 205.723 135.276 205.781 144.004 205.35C152.732 204.919 172.461 202.927 174.332 202.222V192.021C176.93 192.912 187.028 195.819 196.654 191.234C197.137 195.266 198.873 210.349 198.477 216.926Z" fill="#F5BE9B"/>
<path d="M171.341 202.635C173.236 202.065 175.17 201.779 177.101 201.469C179.043 201.245 180.983 200.997 182.961 201.036C181.067 201.608 179.133 201.893 177.202 202.202C175.259 202.426 173.319 202.672 171.341 202.635Z" fill="#DD8F6C"/>
<path d="M174.332 192.021C174.089 188.273 173.65 184.54 173.017 180.838C172.719 178.986 172.401 177.135 172.021 175.298C171.696 173.453 171.169 171.65 170.45 169.92L170.459 169.933L170.448 169.921L170.441 169.913L170.438 169.907L170.154 169.201L170.522 169.87L170.513 169.856L170.525 169.867L170.529 169.871L170.534 169.881C171.423 171.556 172.08 173.344 172.49 175.196C172.914 177.034 173.279 178.885 173.584 180.747C174.145 184.471 174.56 188.25 174.332 192.021Z" fill="#999999"/>
<path d="M120.661 106.84C120.76 107.328 120.718 107.704 120.768 108.084C120.752 108.471 120.824 108.789 120.866 109.289C120.375 109.114 120.162 108.582 120.116 108.112C120.135 107.635 120.25 107.15 120.661 106.84Z" fill="#DD8F6C"/>
<mask id="mask0_454_2204" style="mask-type:luminance" maskUnits="userSpaceOnUse" x="28" y="90" width="148" height="135">
<path d="M28.5094 167.218L122.667 90.5166L175.004 199.954L128.969 224.651L28.5094 167.218Z" fill="url(#paint0_linear_454_2204)" style="mix-blend-mode:multiply"/>
</mask>
<g mask="url(#mask0_454_2204)">
<path d="M28.5094 167.218L122.667 90.5166L175.004 199.954L128.969 224.651L28.5094 167.218Z" fill="url(#paint1_linear_454_2204)"/>
</g>
<path d="M27.2058 167.865L53.3174 220.904C53.4385 221.151 53.6192 221.365 53.8432 221.525C54.0671 221.685 54.3273 221.787 54.6004 221.822L124.421 230.301C124.421 230.301 124.735 219.103 118.15 207.031C111.565 194.949 99.5925 169.674 91.9452 165.469H28.7013C28.4185 165.468 28.1402 165.539 27.8927 165.676C27.6452 165.813 27.4367 166.011 27.287 166.251C27.1372 166.491 27.0512 166.765 27.037 167.047C27.0228 167.33 27.0809 167.611 27.2058 167.865Z" fill="#606060"/>
<path d="M128.969 224.651L122.945 213.08L98.1588 165.469H91.9474L115.578 212.646L124.423 230.301L177.279 224.327C177.586 224.292 177.87 224.145 178.077 223.915C178.283 223.684 178.397 223.385 178.397 223.076V220.93L128.969 224.651Z" fill="#9B9B9B"/>
<g opacity="0.5" style="mix-blend-mode:soft-light">
<path d="M27.5967 165.885L124.421 230.301L91.9452 165.469H28.7013C28.2945 165.467 27.9013 165.615 27.5967 165.885Z" fill="black"/>
</g>
<g opacity="0.5" style="mix-blend-mode:soft-light">
<path d="M178.958 146.124C150.221 174.834 120.931 149.999 113.677 142.92C114.032 142.349 114.347 141.877 114.615 141.516C114.835 141.227 115.083 140.96 115.355 140.718C115.909 140.212 116.492 139.739 117.103 139.302C117.749 138.83 118.478 138.341 119.27 137.834C119.8 137.485 120.365 137.135 120.948 136.78C122.358 135.929 123.885 135.044 125.423 134.193C125.432 134.186 125.442 134.18 125.452 134.176C127.107 133.261 128.767 132.37 130.312 131.566C130.556 131.432 130.801 131.309 131.04 131.181C133.738 129.783 135.969 128.676 136.966 128.187C137.327 128.012 137.531 127.913 137.531 127.913L135.94 121.825C143.404 121.033 151.025 120.234 155.995 119.751L156.595 131.845C156.595 131.845 158.547 132.946 161.478 134.677C166.174 137.467 173.359 141.912 178.958 146.124Z" fill="black"/>
</g>
<path d="M161.476 134.679C159.739 141.816 154.966 147.248 148.963 148.436L146.874 158.495L143.143 148.238C140.808 147.612 138.64 146.342 136.768 144.574C133.489 141.486 131.11 136.89 130.311 131.563C134.332 129.458 137.528 127.913 137.528 127.913L136.271 123.104L135.358 119.614L135.092 118.601L137.293 113.774L155.66 112.87L156.594 131.845C156.594 131.845 158.55 132.945 161.476 134.679Z" fill="#F5BE9B"/>
<g opacity="0.5" style="mix-blend-mode:soft-light">
<path d="M161.476 134.678C159.739 141.816 154.966 147.248 148.963 148.436L146.874 158.495L143.143 148.238C140.808 147.612 138.64 146.342 136.768 144.574C140.275 143.538 144.143 141.288 146.264 136.506C149.252 129.768 141.736 125.337 136.271 123.104L135.358 119.614L150.707 113.114L154.228 111.622C154.276 111.771 154.457 112.247 154.717 112.916C155.004 113.655 155.385 114.633 155.799 115.686L156.594 131.845C156.594 131.845 158.55 132.944 161.476 134.678Z" fill="black"/>
</g>
<path d="M125.303 211.377L124.352 199.871L135.02 201.146C135.02 201.146 137.534 204.924 137.563 205.133C137.592 205.342 137.598 208.25 137.598 208.25L136.827 208.783L130.425 210.665C130.425 210.665 127.848 211.804 125.303 211.377Z" fill="#932A1F"/>
<path d="M136.964 128.186L139.39 210.409C139.39 210.409 137.874 211.142 135.148 211.586C132.752 211.972 129.4 212.137 125.302 211.376C128.604 211.132 138.001 208.266 131.952 205.91C131.002 205.546 130.022 205.268 129.023 205.08L129.023 205.074C128.952 205.06 128.876 205.046 128.805 205.032C127.463 204.79 126.105 204.652 124.742 204.62C124.432 204.612 124.123 204.604 123.826 204.607C123.032 204.599 122.269 204.637 121.583 204.67C120.844 204.718 120.188 204.78 119.631 204.842C118.506 204.973 117.818 205.106 117.818 205.106L115.355 140.716C115.909 140.209 116.494 139.737 117.105 139.3C117.747 138.831 118.475 138.34 119.267 137.835C119.798 137.488 120.364 137.133 120.948 136.778C122.359 135.927 123.884 135.047 125.423 134.196C125.432 134.188 125.442 134.182 125.452 134.177C127.104 133.261 128.77 132.368 130.311 131.564C130.555 131.435 130.8 131.312 131.039 131.184C133.735 129.785 135.968 128.678 136.964 128.186Z" fill="#C45F4F"/>
<path d="M129.023 205.08C128.169 193.276 127.64 181.455 126.938 169.644L126.145 151.913C125.859 146.003 125.628 140.091 125.452 134.177C125.867 140.079 126.231 145.985 126.544 151.893L127.537 169.613L128.329 187.344C128.615 193.253 128.847 199.165 129.023 205.08Z" fill="#932A1F"/>
<g opacity="0.3" style="mix-blend-mode:soft-light">
<path d="M119.267 137.835L121.583 204.671C120.844 204.719 120.188 204.78 119.631 204.842L117.105 139.3C117.747 138.831 118.475 138.341 119.267 137.835Z" fill="black"/>
</g>
<g opacity="0.3" style="mix-blend-mode:soft-light">
<path d="M128.711 200.394L128.899 204.205C128.872 204.492 128.845 204.774 128.805 205.032C127.464 204.79 126.105 204.652 124.742 204.62C124.433 204.612 124.123 204.603 123.826 204.606L120.948 136.778C122.359 135.927 123.885 135.047 125.424 134.195L128.711 200.394Z" fill="black"/>
</g>
<g opacity="0.3" style="mix-blend-mode:soft-light">
<path d="M136.964 128.186L139.39 210.409C139.39 210.409 137.874 211.142 135.148 211.586L135.03 209.311L134.614 201.095L131.039 131.184C133.735 129.785 135.968 128.678 136.964 128.186Z" fill="black"/>
</g>
<path d="M111.664 84.2579C115.238 80.6836 115.238 74.8886 111.664 71.3144C108.089 67.7401 102.293 67.7401 98.7182 71.3144C95.1434 74.8886 95.1434 80.6836 98.7182 84.2579C102.293 87.8322 108.089 87.8322 111.664 84.2579Z" fill="#7D8C48"/>
<g opacity="0.3" style="mix-blend-mode:soft-light">
<path d="M114.292 76.8222C114.48 78.6019 114.142 80.3978 113.321 81.9876C112.499 83.5774 111.229 84.8914 109.668 85.767C108.106 86.6425 106.323 87.0413 104.538 86.9138C102.752 86.7864 101.043 86.1384 99.6226 85.05C101.673 83.0037 102.82 79.5323 102.418 75.7468C102.218 73.6904 101.531 71.7111 100.415 69.9722C101.733 69.1691 103.233 68.7121 104.776 68.6437C106.318 68.5754 107.853 68.8979 109.238 69.5813C110.622 70.2647 111.811 71.2868 112.695 72.5527C113.578 73.8186 114.128 75.2872 114.292 76.8222Z" fill="black"/>
</g>
<path d="M181.951 58.584C179.627 63.9576 174.921 46.41 145.995 41.687C117.063 36.9702 104.554 43.8122 104.554 43.8122C104.554 43.8122 100.667 44.9768 99.5527 43.1753C99.5247 43.127 99.4968 43.0786 99.4683 43.0247C98.5299 41.2159 100.121 38.4893 104.219 38.0258C99.3281 33.9761 106.282 30.6746 107.613 30.334C105.18 27.1115 108.558 24.5256 111.228 24.2422C109.496 20.803 114.901 15.7972 120.932 21.6798C121.327 19.6042 124.122 20.2247 124.956 21.5319C125.252 17.9856 131.89 16.2215 133.065 23.3715C133.806 20.3704 138.213 19.316 140.33 21.7118C139.799 14.0776 152.853 9.20572 153.671 23.1897C153.677 23.1891 153.682 23.1829 153.687 23.1823C157.446 21.1826 158.874 23.8965 158.521 26.1044C163.309 24.7303 164.314 28.1271 164.278 30.1532C167.915 29.7901 171.078 30.9867 168.536 36.6627C175.17 35.1212 179.282 38.1655 175.836 45.5837C178.73 44.7752 179.218 46.7457 178.814 48.9533C181.55 49.0162 184.28 53.2097 181.951 58.584Z" fill="#2A323F"/>
<path d="M112.134 32.5131C112.644 34.1172 110.772 36.8127 108.759 37.4528C106.747 38.093 104.701 37.3115 104.191 35.7074C103.681 34.1032 104.899 32.2839 106.911 31.6437C108.924 31.0036 111.624 30.9089 112.134 32.5131Z" fill="#3D4654"/>
<path d="M115.341 25.9968C115.816 27.4906 114.073 30.0007 112.198 30.5969C110.324 31.193 108.419 30.4653 107.944 28.9714C107.469 27.4776 108.603 25.7834 110.477 25.1872C112.352 24.5911 114.866 24.5029 115.341 25.9968Z" fill="#3D4654"/>
<path d="M120.519 25.0525C119.655 26.3606 116.606 26.5809 114.965 25.4971C113.324 24.4133 112.694 22.4743 113.558 21.1662C114.422 19.8582 116.453 19.6764 118.094 20.7602C119.735 21.8439 121.383 23.7444 120.519 25.0525Z" fill="#3D4654"/>
<g opacity="0.25" style="mix-blend-mode:soft-light">
<path d="M181.951 58.5838C179.627 63.9575 174.921 46.4098 145.994 41.6868C117.063 36.97 104.554 43.812 104.554 43.812C104.554 43.812 100.667 44.9766 99.5526 43.1751C99.5247 43.1268 99.4968 43.0785 99.4683 43.0245C100.977 42.6366 103.843 41.512 109.2 38.8414C122.468 32.2321 135.545 29.3972 146.303 29.8904C151.673 30.135 153.353 26.6926 153.687 23.1821C157.446 21.1824 158.874 23.8963 158.521 26.1042C163.309 24.7301 164.314 28.127 164.278 30.153C167.915 29.7899 171.078 30.9865 168.536 36.6625C175.169 35.1211 179.281 38.1653 175.836 45.5835C178.73 44.775 179.218 46.7455 178.814 48.9531C181.55 49.016 184.28 53.2095 181.951 58.5838Z" fill="black"/>
</g>
<path d="M184.001 60.8842C184.449 64.4028 182.828 78.5488 181.369 82.566C180.741 84.3199 179.887 85.9846 178.829 87.5182C178.775 87.598 178.72 87.6722 178.671 87.7458C178.428 88.0875 178.166 88.4157 177.887 88.7291L173.338 92.4078C173.338 92.4078 117.386 90.0234 113.288 87.1143C109.289 84.2802 97.9934 65.7856 98.9851 49.2056C99.036 48.3294 99.4114 47.5036 100.038 46.8892C101.18 45.8082 102.425 44.8405 103.754 43.9997C103.764 43.9937 103.775 43.9887 103.786 43.9848C111.912 38.7303 127.048 33.7798 144.675 32.2622C145.462 32.1928 146.255 32.3138 146.986 32.6151C167.113 40.9152 183.561 57.4332 184.001 60.8842Z" fill="#7D8C48"/>
<path d="M169.523 92.7021C169.523 92.7021 174.691 84.6859 179.326 86.869C183.961 89.052 183.145 98.1666 178.484 102.562C173.823 106.958 167.838 106.757 168.965 99.0028C170.093 91.2484 169.523 92.7021 169.523 92.7021Z" fill="#F5BE9B"/>
<path d="M170.629 97.5894C171.047 96.7187 171.628 95.9365 172.341 95.2857C173.054 94.606 173.881 94.057 174.784 93.6639C175.709 93.3021 176.9 93.0682 177.993 93.5764C179.1 94.0856 179.554 95.2082 179.587 96.1476C178.886 95.4368 178.24 94.9133 177.563 94.8311C176.902 94.7476 176.172 94.919 175.421 95.2384C173.9 95.8644 172.402 96.8128 170.629 97.5894Z" fill="#DD8F6C"/>
<g opacity="0.5" style="mix-blend-mode:soft-light">
<path d="M169.523 92.7021C169.523 92.7021 174.691 84.6859 179.326 86.869C183.961 89.052 183.145 98.1666 178.484 102.562C173.823 106.958 167.838 106.757 168.965 99.0028C170.093 91.2484 169.523 92.7021 169.523 92.7021Z" fill="black"/>
</g>
<path d="M172.87 88.0028C171.331 96.1016 169.477 102.844 165.859 108.418C162.931 112.938 158.84 116.694 152.832 119.775C141.215 125.731 125.24 122.31 116.945 116.623L116.944 116.617L116.939 116.618C116.342 116.208 115.791 115.794 115.279 115.364C114.706 114.89 114.167 114.376 113.668 113.826C107.184 106.635 106.204 102.285 112.462 97.5302C112.251 95.8094 112.03 94.0498 111.817 92.3065C110.425 81.1861 109.058 70.3993 109.058 70.3993C110.917 67.6502 113.08 65.1182 115.504 62.8507C117.639 60.8581 120.209 58.9276 123.04 57.6815C123.219 57.6054 123.405 57.5288 123.591 57.4521C143.969 62.5355 163.675 75.9333 172.87 88.0028Z" fill="#F5BE9B"/>
<g opacity="0.7" style="mix-blend-mode:soft-light">
<path d="M128.903 78.1312C127.259 85.1359 117.709 89.9549 111.817 92.3064C110.425 81.186 109.058 70.3992 109.058 70.3992C110.917 67.6501 113.08 65.118 115.504 62.8506C121.651 65.8041 130.494 71.3313 128.903 78.1312Z" fill="white"/>
</g>
<g opacity="0.7" style="mix-blend-mode:soft-light">
<path d="M115.279 115.364C114.706 114.891 114.167 114.377 113.668 113.826C107.184 106.635 106.204 102.285 112.462 97.5303C112.462 97.5303 125.412 108.632 115.279 115.364Z" fill="white"/>
</g>
<path d="M123.588 57.4527C130.663 54.2911 138.012 51.7464 145.495 49.7024C149.255 48.7516 153.034 47.8398 156.882 47.304C160.723 46.758 164.614 46.4514 168.485 46.7061C164.607 46.6614 160.76 47.1167 156.95 47.7344C153.138 48.3559 149.375 49.2592 145.641 50.2492C141.895 51.2054 138.208 52.3764 134.53 53.5718C130.859 54.7904 127.201 56.0566 123.588 57.4527Z" fill="#3F5605"/>
<path d="M138.449 53.2373C142.466 53.6192 146.451 54.2844 150.374 55.2279C154.31 56.1359 158.189 57.2759 161.99 58.6421C165.754 60.1132 169.429 61.8204 172.91 63.8791C176.363 65.9837 179.574 68.4906 182.299 71.4691C179.414 68.6456 176.156 66.2745 172.718 64.2033C169.229 62.2123 165.551 60.578 161.792 59.1715C158.03 57.7528 154.189 56.5579 150.286 55.593C146.378 54.6513 142.437 53.8167 138.449 53.2373Z" fill="#3F5605"/>
<path d="M100.196 61.5387C104.394 57.4137 109.232 53.9535 114.372 51.0762C119.506 48.1563 124.968 45.8551 130.643 44.2208L132.769 43.603L134.935 43.1484C136.384 42.8715 137.816 42.4967 139.278 42.3009C142.207 41.9498 145.127 41.5001 148.083 41.5106C151.03 41.3009 153.973 41.5392 156.913 41.7193C158.389 41.7591 159.835 42.0744 161.289 42.2981L165.643 43.0143C159.825 42.1823 153.964 41.51 148.098 41.887C145.158 41.9076 142.259 42.3875 139.353 42.7669C137.904 42.9769 136.485 43.3656 135.05 43.6557L132.904 44.1298L130.8 44.764C125.142 46.3277 119.688 48.5567 114.555 51.4043C113.266 52.103 112.024 52.887 110.755 53.6245C109.524 54.42 108.295 55.224 107.089 56.0604C104.682 57.7377 102.345 59.5312 100.196 61.5387Z" fill="#3F5605"/>
<path d="M113.691 79.7435C113.871 78.2841 114.864 77.1181 116.104 76.4043C117.349 75.7017 119.005 75.5516 120.241 76.3362C119.569 76.6621 118.996 76.8464 118.459 77.1118C117.935 77.3456 117.423 77.6056 116.926 77.8907C115.911 78.43 114.964 79.0731 113.691 79.7435Z" fill="#2A323F"/>
<path d="M147.47 76.1585C145.896 75.3984 144.79 74.676 143.605 74.0412C143.038 73.6904 142.448 73.4018 141.832 73.0748C141.212 72.7322 140.549 72.4572 139.77 71.9845C140.509 71.5164 141.377 71.2963 142.249 71.3564C143.117 71.3921 143.964 71.6365 144.718 72.0688C145.462 72.4927 146.106 73.0726 146.605 73.7686C147.089 74.4565 147.448 75.2558 147.47 76.1585Z" fill="#2A323F"/>
<g opacity="0.5" style="mix-blend-mode:soft-light">
<path d="M115.231 88.777C114.757 84.9376 115.964 81.6286 117.928 81.3862C119.892 81.1437 121.868 84.0597 122.342 87.8991C122.816 91.7386 121.609 95.0476 119.645 95.29C117.681 95.5325 115.705 92.6165 115.231 88.777Z" fill="black"/>
</g>
<path d="M119.425 94.5928C120.609 94.4465 121.338 92.4502 121.052 90.134C120.766 87.8177 119.574 86.0586 118.389 86.2049C117.204 86.3512 116.475 88.3474 116.761 90.6637C117.047 92.9799 118.24 94.739 119.425 94.5928Z" fill="#2A323F"/>
<path d="M117.428 88.493C117.51 89.1542 117.85 89.6563 118.188 89.6146C118.526 89.5728 118.734 89.003 118.653 88.3418C118.571 87.6806 118.231 87.1785 117.893 87.2202C117.554 87.2619 117.346 87.8318 117.428 88.493Z" fill="white"/>
<path d="M118.695 90.1947C118.735 90.5225 118.904 90.7714 119.071 90.7507C119.239 90.73 119.342 90.4475 119.302 90.1197C119.261 89.7919 119.093 89.543 118.925 89.5637C118.757 89.5844 118.654 89.8669 118.695 90.1947Z" fill="white"/>
<g opacity="0.5" style="mix-blend-mode:soft-light">
<path d="M139.376 85.0425C138.791 80.3044 140.281 76.2208 142.705 75.9217C145.128 75.6225 147.567 79.221 148.152 83.959C148.737 88.6972 147.247 92.7808 144.824 93.0799C142.4 93.3791 139.961 89.7806 139.376 85.0425Z" fill="black"/>
</g>
<path d="M144.552 92.2186C146.014 92.0381 146.913 89.5746 146.56 86.7162C146.207 83.8579 144.735 81.687 143.273 81.8675C141.811 82.048 140.912 84.5115 141.265 87.3699C141.618 90.2283 143.09 92.3991 144.552 92.2186Z" fill="#2A323F"/>
<path d="M142.088 84.6918C142.188 85.5078 142.608 86.1275 143.026 86.076C143.443 86.0244 143.7 85.3212 143.599 84.5053C143.498 83.6893 143.078 83.0696 142.661 83.1212C142.244 83.1727 141.987 83.8759 142.088 84.6918Z" fill="white"/>
<path d="M143.651 86.7919C143.701 87.1964 143.909 87.5036 144.116 87.478C144.323 87.4525 144.45 87.1039 144.4 86.6994C144.35 86.2949 144.142 85.9877 143.935 86.0132C143.728 86.0387 143.601 86.3874 143.651 86.7919Z" fill="white"/>
<g opacity="0.5" style="mix-blend-mode:soft-light">
<path d="M172.87 88.0028C171.331 96.1016 169.477 102.844 165.859 108.418C153.988 122.78 138.645 125.303 121.256 118.484C133.219 122.278 151.194 118.513 156.591 108.604C162.684 97.4067 160.978 86.2172 153.761 76.3589C146.543 66.4949 123.04 57.6872 123.04 57.6872L123.04 57.6815C123.219 57.6054 123.405 57.5288 123.591 57.4521C143.969 62.5355 163.675 75.9333 172.87 88.0028Z" fill="black"/>
</g>
<g opacity="0.3" style="mix-blend-mode:soft-light">
<path d="M184.001 60.8842C184.449 64.4028 182.828 78.5488 181.369 82.5661C180.825 84.0728 180.119 85.5158 179.263 86.8698C179.263 86.8698 178.319 86.2234 176.615 86.6179C175.298 86.8134 173.104 88.3823 172.682 88.9683C173.218 87.3499 173.536 85.0698 171.914 82.698C166.599 76.6938 157.974 65.2815 133.161 60.4467C152.118 61.0495 174.516 70.453 174.516 70.453C171.826 68.1921 164.529 59.9373 145.219 54.2962C162.265 56.7539 175 65.4 175 65.4C175 65.4 166.868 50.7395 155.729 50.7825C144.583 50.8261 135.574 54.135 124.24 57.178C128.719 54.8853 153.696 42.852 138.554 44.2085C119.49 47.0008 105.185 57.423 102.346 59.6099C103.401 58.7574 105.944 56.7442 108.702 54.7597C115.608 50.096 147.898 35.1445 132.396 36.1232C117.353 37.0648 104.532 43.5981 103.786 43.9848C111.912 38.7303 127.048 33.7798 144.675 32.2622C145.462 32.1928 146.255 32.3138 146.986 32.6151C167.113 40.9152 183.561 57.4332 184.001 60.8842Z" fill="black"/>
</g>
<g opacity="0.3" style="mix-blend-mode:soft-light">
<path d="M109.058 70.3994C109.058 70.3994 105.372 77.1107 110.893 84.9433C109.756 75.9197 109.058 70.3994 109.058 70.3994Z" fill="black"/>
</g>
<path d="M158.26 94.7048C158.715 93.6859 158.257 92.4913 157.238 92.0366C156.219 91.582 155.024 92.0394 154.57 93.0584C154.115 94.0773 154.572 95.2719 155.591 95.7266C156.611 96.1812 157.805 95.7238 158.26 94.7048Z" fill="#2A323F"/>
<path d="M143.393 103.517C143.347 105.925 142.984 108.164 142.337 110.132C139.537 118.768 131.495 121.967 122.691 109.305C122.082 108.109 122.615 108.63 122.695 108.421C123.264 108.484 123.813 108.543 124.347 108.583C128.671 108.947 132.086 108.726 134.786 108.171L134.812 108.169C138.223 107.588 141.527 106.268 143.393 103.517Z" fill="#2A323F"/>
<path d="M143.393 103.517C143.347 105.925 142.984 108.164 142.337 110.132C139.566 112.337 136.061 114.139 132.655 113.311C131.88 113.126 131.118 112.89 130.374 112.605C128.2 111.786 126.23 110.505 124.599 108.85C124.513 108.759 124.427 108.668 124.347 108.583C128.671 108.947 132.086 108.726 134.786 108.171L134.812 108.169C138.223 107.588 141.527 106.268 143.393 103.517Z" fill="white"/>
<path d="M143.393 103.517C143.347 105.925 142.984 108.164 142.337 110.132C139.566 112.337 136.061 114.139 132.655 113.311C131.88 113.126 131.118 112.89 130.374 112.605C132.952 112.323 137.236 111.517 138.35 109.169C132.98 110.78 127.555 109.709 124.599 108.85C124.513 108.759 124.427 108.668 124.347 108.583C128.671 108.947 132.086 108.726 134.786 108.171L134.812 108.169C138.223 107.588 141.527 106.268 143.393 103.517Z" fill="#E2E2E2"/>
<path d="M128.383 109.132C127.086 109.132 125.731 109.072 124.316 108.953C123.781 108.913 123.228 108.854 122.655 108.79C121.909 108.707 121.136 108.608 120.342 108.49L120.45 107.756C121.235 107.872 121.999 107.972 122.736 108.053C123.301 108.117 123.845 108.174 124.375 108.214C128.315 108.545 131.79 108.41 134.711 107.809C141.634 106.374 143.645 102.798 144.189 101.326L144.884 101.584C144.297 103.171 142.148 107.025 134.887 108.533C132.745 108.949 130.566 109.15 128.383 109.132Z" fill="#DD8F6C"/>
<path d="M142.015 99.7705C143.07 99.8203 144.029 100.391 144.768 101.164C145.119 101.575 145.381 102.055 145.538 102.572C145.688 103.081 145.703 103.621 145.58 104.138C145.384 103.649 145.254 103.189 145.008 102.783C144.8 102.369 144.531 101.988 144.212 101.652C143.623 100.927 142.84 100.39 142.015 99.7705Z" fill="#DD8F6C"/>
<path d="M140.922 105.676C133.959 109.269 126.441 109.132 124.274 109.003C123.878 108.977 123.659 108.955 123.659 108.955C123.659 108.955 124.287 102.257 129.038 100.26C129.493 100.066 129.969 99.9237 130.457 99.8363C136.502 98.7105 139.964 101.909 140.922 105.676Z" fill="#3D4654"/>
<g opacity="0.25" style="mix-blend-mode:soft-light">
<path d="M129.038 100.26C130.175 102.982 131.231 107.985 124.274 109.003C123.878 108.976 123.659 108.954 123.659 108.954C123.659 108.954 124.287 102.256 129.038 100.26Z" fill="white"/>
</g>
<g opacity="0.7" style="mix-blend-mode:soft-light">
<path d="M127.173 98.0138C126.733 97.2972 126.596 96.4401 126.817 95.7274C127.206 94.4556 128.5 93.5492 129.53 93.0068C130.148 94.5876 130.516 97.0893 127.173 98.0138Z" fill="white"/>
</g>
<path d="M133.401 98.1791C132.54 99.0899 131.4 99.8541 129.996 99.976C128.588 100.154 127.08 99.2543 126.484 97.9237C126.164 97.2426 126.084 96.4735 126.257 95.7413C126.466 95.0535 126.869 94.4405 127.417 93.9759C128.423 93.0516 129.702 92.6718 130.919 92.3984C129.851 93.0812 128.794 93.7143 128.044 94.5991C127.266 95.4663 127.03 96.495 127.511 97.4471C127.731 97.9243 128.078 98.3318 128.515 98.6248C128.951 98.9179 129.459 99.0853 129.984 99.1086C131.101 99.1855 132.271 98.7201 133.401 98.1791Z" fill="#DD8F6C"/>
<g opacity="0.5" style="mix-blend-mode:soft-light">
<path d="M197.096 191.018C187.343 195.906 176.971 192.923 174.332 192.02C174.361 184.907 172.485 176.046 171.92 173.791C171.556 172.455 171.079 171.153 170.492 169.899C170.9 170.348 184.027 184.732 196.782 187.167C196.922 188.472 197.026 189.756 197.096 191.018Z" fill="black"/>
</g>
<g opacity="0.5" style="mix-blend-mode:soft-light">
<path d="M198.477 216.926C198.093 223.259 163.302 220.684 148.846 219.361C172.543 214.415 175.351 205.234 174.332 199.315V192.021C176.93 192.912 187.028 195.819 196.654 191.234C197.137 195.266 198.874 210.349 198.477 216.926Z" fill="black"/>
</g>
<path d="M228.436 218.269C211.956 218.269 198.597 216.43 198.597 214.161V218.656C198.597 220.925 211.956 223.237 228.436 223.237C244.916 223.237 258.276 220.925 258.276 218.656V214.161C258.276 216.43 244.916 218.269 228.436 218.269Z" fill="#C1C1C1"/>
<g opacity="0.8" style="mix-blend-mode:soft-light">
<path d="M228.436 222.368C211.956 222.368 198.597 220.056 198.597 217.787V218.657C198.597 220.926 211.956 223.238 228.436 223.238C244.916 223.238 258.276 220.926 258.276 218.657V217.787C258.276 220.056 244.916 222.368 228.436 222.368Z" fill="black"/>
</g>
<g opacity="0.7" style="mix-blend-mode:soft-light">
<path d="M204.074 217.282V220.288C204.074 220.99 204.734 221.33 205.082 221.399C207.756 221.926 211.139 222.378 215.003 222.701C215.066 222.706 215.839 222.769 215.902 222.774C215.699 222.723 215.519 222.605 215.39 222.44C215.262 222.274 215.192 222.071 215.193 221.861V218.644C215.193 218.026 215.972 217.896 215.972 217.896C215.913 217.892 215.073 217.837 215.013 217.832C211.063 217.557 207.615 217.165 204.913 216.69C204.624 216.64 204.074 216.818 204.074 217.282Z" fill="white"/>
</g>
<g opacity="0.7" style="mix-blend-mode:soft-light">
<path d="M243.71 217.692C243.71 217.692 244.583 217.824 244.583 218.7V221.678C244.583 222.283 243.71 222.534 243.71 222.534C243.762 222.529 244.687 222.434 244.739 222.428C248.529 222.023 251.72 221.491 254.05 220.892C254.339 220.818 254.877 220.429 254.877 219.839V217.094C254.877 216.57 254.275 216.22 253.95 216.293C251.621 216.821 248.454 217.27 244.702 217.607C244.662 217.61 243.749 217.689 243.71 217.692Z" fill="white"/>
</g>
<path d="M228.436 164.469C211.956 164.469 198.597 162.63 198.597 160.36V214.048C198.597 214.514 199.162 214.962 200.202 215.38C204.221 216.996 215.344 218.502 228.436 218.502C241.53 218.502 252.651 216.996 256.67 215.38C257.71 214.962 258.276 214.514 258.276 214.048V160.36C258.276 162.63 244.916 164.469 228.436 164.469Z" fill="#B2B2B2"/>
<path opacity="0.3" d="M256.67 214.856C252.651 216.471 241.53 217.977 228.436 217.977C215.344 217.977 204.221 216.471 200.202 214.856C199.162 214.438 198.597 213.99 198.597 213.523V214.048C198.597 214.514 199.162 214.962 200.202 215.38C204.221 216.996 215.344 218.502 228.436 218.502C241.53 218.502 252.651 216.996 256.67 215.38C257.71 214.962 258.276 214.514 258.276 214.048V213.523C258.276 213.99 257.71 214.438 256.67 214.856Z" fill="url(#paint2_linear_454_2204)" style="mix-blend-mode:multiply"/>
<path d="M248.975 145.487C248.975 147.049 239.779 148.315 228.436 148.315C217.093 148.315 207.899 147.05 207.898 145.487L198.597 160.36C198.597 162.63 211.956 164.47 228.436 164.47C244.916 164.47 258.276 162.63 258.276 160.36L248.975 145.487Z" fill="#C1C1C1"/>
<path d="M207.901 139.07L207.898 139.071V145.487C207.899 147.049 217.093 148.315 228.436 148.315C239.779 148.315 248.975 147.049 248.975 145.487V139.07C244.741 140.021 237.126 140.654 228.436 140.654C219.748 140.654 212.135 140.021 207.901 139.07Z" fill="#9B9B9B"/>
<path opacity="0.3" d="M207.901 139.07L207.898 139.071V145.487C207.899 147.049 217.093 148.315 228.436 148.315C239.779 148.315 248.975 147.049 248.975 145.487V139.07C248.975 143.692 244.867 147.937 228.436 147.937C212.006 147.937 207.901 144.348 207.901 139.07Z" fill="url(#paint3_linear_454_2204)" style="mix-blend-mode:multiply"/>
<path opacity="0.5" d="M207.901 139.07L207.898 139.071V139.254C207.901 140.815 217.095 142.082 228.436 142.082C239.779 142.082 248.975 140.815 248.975 139.253V139.07C244.741 140.021 237.126 140.654 228.436 140.654C219.748 140.654 212.135 140.021 207.901 139.07Z" fill="url(#paint4_linear_454_2204)" style="mix-blend-mode:multiply"/>
<path d="M253.003 136.141L247.782 130.97C248.519 132.75 239.881 134.303 228.436 134.313C216.993 134.323 208.351 132.786 209.081 131.005L203.876 136.184H203.875C203.081 136.975 203.698 137.76 205.529 138.465L205.527 138.467L205.53 138.467C209.273 139.907 217.846 140.953 228.446 140.942C239.048 140.934 247.619 139.872 251.356 138.426L251.354 138.424C253.184 137.715 253.8 136.93 253.003 136.141Z" fill="url(#paint5_linear_454_2204)"/>
<path d="M253.003 136.141L247.782 130.97C248.519 132.75 239.881 134.303 228.436 134.313C216.993 134.323 208.61 132.751 209.34 130.97L209.081 131.005L203.876 136.184H203.875C203.081 136.975 203.698 137.76 205.529 138.465L205.527 138.467L205.53 138.467C209.273 139.907 217.846 140.953 228.446 140.942C239.048 140.934 247.619 139.872 251.356 138.426L251.354 138.424C253.184 137.715 253.8 136.93 253.003 136.141Z" fill="#C1C1C1"/>
<g opacity="0.7" style="mix-blend-mode:soft-light">
<path d="M204.074 165.414V213.523C204.074 215.266 205.62 215.927 206.485 216.071C208.885 216.47 211.743 216.821 214.932 217.089C215.042 217.098 216.75 217.229 216.861 217.239C216.861 217.239 215.264 216.814 215.264 215.09V166.786C215.264 164.561 217.141 164.154 217.141 164.154C216.219 164.095 214.468 163.984 214.078 163.955C211.062 163.728 208.363 163.434 206.096 163.085C205.377 162.974 204.074 163.297 204.074 165.414Z" fill="white"/>
</g>
<g opacity="0.7" style="mix-blend-mode:soft-light">
<path d="M241.64 164.033C241.64 164.033 243.144 164.344 243.144 166.064V215.07C243.144 216.735 241.64 217.27 241.64 217.27C241.724 217.262 244.753 216.996 244.837 216.988C248.554 216.592 251.362 216.171 253.664 215.608C254.631 215.371 254.876 214.889 254.876 213.556V164.446C254.876 163.42 254.54 162.356 253.396 162.613C251.187 163.109 248.288 163.503 244.911 163.772C243.834 163.859 241.749 164.023 241.64 164.033Z" fill="white"/>
</g>
<g opacity="0.7" style="mix-blend-mode:soft-light">
<path d="M213.21 141.053V146.5C213.21 147.248 212.646 147.296 212.646 147.296C212.913 147.337 213.753 147.466 214.037 147.505C215.698 147.729 217.636 147.915 219.773 148.052C219.805 148.054 220.673 148.107 220.704 148.109C220.457 148.043 220.24 147.895 220.088 147.689C219.935 147.484 219.858 147.233 219.867 146.977V141.828C218.326 141.808 215.087 141.486 213.21 141.053Z" fill="white"/>
</g>
<g opacity="0.7" style="mix-blend-mode:soft-light">
<path d="M239.697 141.566V146.822C239.697 147.745 238.706 147.937 238.706 147.937C238.737 147.935 239.759 147.847 239.789 147.844C241.651 147.688 243.503 147.438 245.34 147.095C245.395 147.083 246.351 146.87 246.404 146.859C246.404 146.859 245.504 146.739 245.504 146.036V140.76C243.899 141.141 241.847 141.409 239.697 141.566Z" fill="white"/>
</g>
<g style="mix-blend-mode:screen">
<g opacity="0.7" style="mix-blend-mode:soft-light">
<path d="M215.206 133.491L211.78 139.906C214.351 140.288 217.424 140.583 220.866 140.759L221.409 134.111C219.076 133.969 216.982 133.757 215.206 133.491Z" fill="white"/>
</g>
<g opacity="0.7" style="mix-blend-mode:soft-light">
<path d="M241.711 133.461L244.335 139.988C247.215 139.591 249.523 139.089 251.087 138.524L246.123 132.461C245.073 132.838 243.569 133.178 241.711 133.461Z" fill="white"/>
</g>
</g>
<g opacity="0.7" style="mix-blend-mode:soft-light">
<path d="M258.276 160.36C258.274 160.558 258.197 160.748 258.06 160.89C257.805 161.203 257.261 161.55 256.501 161.865C254.976 162.496 252.626 163.08 249.761 163.547C246.894 164.014 243.512 164.407 239.87 164.654C236.23 164.901 232.334 165.033 228.435 165.044C224.54 165.035 220.643 164.901 217.002 164.654C213.36 164.409 209.979 164.014 207.112 163.548C204.246 163.081 201.896 162.496 200.371 161.865C199.611 161.55 199.067 161.203 198.814 160.89C198.676 160.748 198.599 160.558 198.597 160.36C198.61 160.556 198.696 160.74 198.838 160.876C199.103 161.176 199.66 161.491 200.421 161.785C201.951 162.376 204.313 162.871 207.172 163.296C210.034 163.722 213.414 164.031 217.042 164.259C220.67 164.487 224.554 164.598 228.437 164.587C232.318 164.598 236.203 164.487 239.831 164.259C241.645 164.142 243.397 164.014 245.053 163.853C246.709 163.694 248.269 163.506 249.7 163.296C252.559 162.872 254.923 162.377 256.453 161.785C257.213 161.491 257.77 161.176 258.034 160.876C258.177 160.741 258.264 160.557 258.276 160.36Z" fill="white"/>
</g>
<path opacity="0.3" d="M248.975 145.487C262.431 174.372 196.248 161.7 198.597 160.36C198.597 162.63 211.956 164.47 228.436 164.47C244.916 164.47 258.276 162.63 258.276 160.36L248.975 145.487Z" fill="url(#paint6_linear_454_2204)" style="mix-blend-mode:multiply"/>
<g opacity="0.7" style="mix-blend-mode:soft-light">
<path d="M213.21 147.386L205.186 162.937C208.258 163.462 211.838 163.856 216.414 164.123L219.866 148.058C217.326 147.897 215.063 147.667 213.21 147.386Z" fill="white"/>
</g>
<g opacity="0.7" style="mix-blend-mode:soft-light">
<path d="M239.041 147.918C239.041 147.918 239.631 147.959 239.679 148.315C239.727 148.672 241.805 164.035 241.805 164.035C246.176 163.68 251.832 163.04 254.403 162.437L245.74 147.056C244.206 147.372 241.352 147.709 239.041 147.918Z" fill="white"/>
</g>
<g opacity="0.3" style="mix-blend-mode:soft-light">
<path d="M228.406 215.465C203.535 217.726 198.597 214.048 198.597 214.048C198.597 214.514 199.162 214.962 200.202 215.38C204.221 216.996 215.344 218.502 228.436 218.502C241.53 218.502 252.651 216.996 256.67 215.38C257.71 214.962 258.276 214.514 258.276 214.048V170.851C258.276 193.779 254.748 213.071 228.406 215.465Z" fill="black"/>
</g>
<path d="M247.782 131.082C248.519 132.862 239.882 134.415 228.436 134.426C216.991 134.436 208.348 132.898 209.081 131.116C209.761 129.461 218.404 128.195 228.428 128.186C238.45 128.177 247.097 129.428 247.782 131.082Z" fill="#B2B2B2"/>
<path d="M246.2 131.588C246.877 133.098 238.946 134.416 228.436 134.425C217.927 134.435 209.991 133.131 210.664 131.621C211.289 130.216 219.225 129.142 228.429 129.134C237.632 129.126 245.572 130.186 246.2 131.588Z" fill="#848484"/>
<g opacity="0.3" style="mix-blend-mode:soft-light">
<path d="M246.2 131.588C245.572 130.186 237.633 129.126 228.429 129.134C219.225 129.142 211.289 130.216 210.664 131.621C210.643 131.666 210.631 131.715 210.626 131.764C210.63 131.724 210.641 131.684 210.658 131.647C211.187 130.458 217.909 129.548 225.704 129.541C233.499 129.534 240.223 130.432 240.756 131.62C241.329 132.899 234.611 134.015 225.711 134.022C217.37 134.03 210.945 133.061 210.636 131.886C210.944 133.281 218.551 134.434 228.436 134.425C238.946 134.416 246.877 133.098 246.2 131.588Z" fill="black"/>
</g>
<path d="M283.24 219.561C269.481 219.561 258.327 218.026 258.327 216.131V219.884C258.327 221.778 269.481 223.709 283.24 223.709C297 223.709 308.154 221.778 308.154 219.884V216.131C308.154 218.026 297 219.561 283.24 219.561Z" fill="#C1C1C1"/>
<g opacity="0.8" style="mix-blend-mode:soft-light">
<path d="M283.24 222.983C269.481 222.983 258.327 221.053 258.327 219.158V219.885C258.327 221.779 269.481 223.71 283.24 223.71C297 223.71 308.154 221.779 308.154 219.885V219.158C308.154 221.053 297 222.983 283.24 222.983Z" fill="black"/>
</g>
<g opacity="0.7" style="mix-blend-mode:soft-light">
<path d="M262.899 218.736V221.247C262.899 221.833 263.45 222.116 263.741 222.174C265.974 222.614 268.798 222.991 272.025 223.261C272.078 223.265 272.723 223.318 272.775 223.322C272.606 223.279 272.455 223.181 272.348 223.043C272.241 222.905 272.182 222.735 272.183 222.56V219.874C272.183 219.358 272.834 219.249 272.834 219.249C272.784 219.246 272.083 219.2 272.033 219.196C268.735 218.966 265.856 218.639 263.6 218.242C263.359 218.2 262.899 218.349 262.899 218.736Z" fill="white"/>
</g>
<g opacity="0.7" style="mix-blend-mode:soft-light">
<path d="M295.992 219.079C295.992 219.079 296.721 219.189 296.721 219.92V222.407C296.721 222.912 295.992 223.121 295.992 223.121C296.036 223.117 296.808 223.038 296.852 223.033C300.016 222.695 302.68 222.25 304.626 221.75C304.866 221.688 305.316 221.363 305.316 220.871V218.579C305.316 218.141 304.814 217.849 304.542 217.91C302.597 218.351 299.953 218.727 296.821 219.008C296.788 219.01 296.025 219.076 295.992 219.079Z" fill="white"/>
</g>
<path d="M283.24 174.643C269.481 174.643 258.327 173.107 258.327 171.212V216.036C258.327 216.426 258.799 216.8 259.667 217.149C263.023 218.498 272.309 219.755 283.24 219.755C294.172 219.755 303.458 218.498 306.814 217.149C307.682 216.8 308.154 216.426 308.154 216.036V171.212C308.154 173.107 297 174.643 283.24 174.643Z" fill="#B2B2B2"/>
<path opacity="0.3" d="M306.814 216.711C303.458 218.059 294.172 219.317 283.24 219.317C272.309 219.317 263.023 218.059 259.667 216.711C258.799 216.362 258.327 215.988 258.327 215.599V216.036C258.327 216.425 258.799 216.8 259.667 217.149C263.023 218.498 272.309 219.755 283.24 219.755C294.172 219.755 303.458 218.498 306.814 217.149C307.682 216.8 308.154 216.425 308.154 216.036V215.599C308.154 215.988 307.682 216.362 306.814 216.711Z" fill="url(#paint7_linear_454_2204)" style="mix-blend-mode:multiply"/>
<path d="M300.388 158.794C300.388 160.098 292.711 161.155 283.24 161.155C273.77 161.155 266.093 160.098 266.093 158.794L258.327 171.212C258.327 173.106 269.481 174.643 283.24 174.643C297 174.643 308.154 173.106 308.154 171.212L300.388 158.794Z" fill="#C1C1C1"/>
<path d="M266.095 153.437L266.093 153.437V158.794C266.093 160.098 273.77 161.155 283.24 161.155C292.711 161.155 300.388 160.098 300.388 158.794V153.437C296.853 154.23 290.496 154.759 283.24 154.759C275.986 154.759 269.63 154.23 266.095 153.437Z" fill="#9B9B9B"/>
<path opacity="0.3" d="M266.095 153.437L266.093 153.437V158.794C266.093 160.098 273.77 161.155 283.24 161.155C292.711 161.155 300.388 160.098 300.388 158.794V153.437C300.388 157.296 296.959 160.839 283.24 160.839C269.522 160.839 266.095 157.843 266.095 153.437Z" fill="url(#paint8_linear_454_2204)" style="mix-blend-mode:multiply"/>
<path opacity="0.5" d="M266.095 153.437L266.093 153.437V153.59C266.095 154.894 273.771 155.951 283.24 155.951C292.711 155.951 300.388 154.894 300.388 153.589V153.437C296.853 154.23 290.496 154.759 283.24 154.759C275.986 154.759 269.63 154.23 266.095 153.437Z" fill="url(#paint9_linear_454_2204)" style="mix-blend-mode:multiply"/>
<path d="M303.751 150.99L299.392 146.673C300.007 148.159 292.795 149.456 283.24 149.464C273.686 149.473 266.47 148.189 267.08 146.702L262.734 151.027H262.733C262.07 151.687 262.586 152.342 264.115 152.931L264.113 152.933L264.116 152.932C267.24 154.135 274.398 155.008 283.248 154.999C292.1 154.992 299.256 154.105 302.376 152.898L302.375 152.896C303.903 152.305 304.417 151.649 303.751 150.99Z" fill="url(#paint10_linear_454_2204)"/>
<path d="M303.751 150.99L299.392 146.673C300.007 148.159 292.795 149.456 283.24 149.464C273.686 149.473 266.687 148.16 267.297 146.673L267.08 146.702L262.734 151.027H262.733C262.07 151.687 262.586 152.342 264.115 152.931L264.113 152.933L264.116 152.932C267.24 154.135 274.398 155.008 283.248 154.999C292.1 154.992 299.256 154.105 302.376 152.898L302.375 152.896C303.903 152.305 304.417 151.649 303.751 150.99Z" fill="#C1C1C1"/>
<g opacity="0.7" style="mix-blend-mode:soft-light">
<path d="M262.899 175.431V215.597C262.899 217.053 264.191 217.605 264.913 217.725C266.917 218.059 269.303 218.352 271.966 218.575C272.058 218.583 273.483 218.692 273.576 218.7C273.576 218.7 272.242 218.345 272.242 216.906V176.577C272.242 174.718 273.81 174.379 273.81 174.379C273.04 174.329 271.578 174.237 271.253 174.212C268.734 174.023 266.48 173.777 264.588 173.487C263.988 173.394 262.899 173.663 262.899 175.431Z" fill="white"/>
</g>
<g opacity="0.7" style="mix-blend-mode:soft-light">
<path d="M294.264 174.277C294.264 174.277 295.52 174.537 295.52 175.973V216.889C295.52 218.279 294.264 218.726 294.264 218.726C294.335 218.719 296.863 218.497 296.934 218.49C300.037 218.16 302.381 217.809 304.303 217.338C305.111 217.14 305.316 216.738 305.316 215.626V174.622C305.316 173.766 305.035 172.877 304.079 173.092C302.235 173.506 299.815 173.835 296.995 174.06C296.096 174.132 294.355 174.27 294.264 174.277Z" fill="white"/>
</g>
<g opacity="0.7" style="mix-blend-mode:soft-light">
<path d="M270.528 155.091V159.639C270.528 160.264 270.056 160.304 270.056 160.304C270.279 160.338 270.981 160.445 271.218 160.478C272.605 160.665 274.223 160.82 276.007 160.934C276.033 160.937 276.758 160.981 276.785 160.982C276.578 160.927 276.397 160.804 276.27 160.632C276.143 160.46 276.078 160.25 276.085 160.037V155.738C274.799 155.722 272.095 155.452 270.528 155.091Z" fill="white"/>
</g>
<g opacity="0.7" style="mix-blend-mode:soft-light">
<path d="M292.642 155.52V159.908C292.642 160.679 291.814 160.839 291.814 160.839C291.84 160.837 292.693 160.764 292.719 160.762C294.273 160.631 295.82 160.422 297.353 160.136C297.399 160.126 298.197 159.948 298.242 159.939C298.242 159.939 297.491 159.838 297.491 159.252V154.847C296.15 155.165 294.437 155.388 292.642 155.52Z" fill="white"/>
</g>
<g style="mix-blend-mode:screen">
<g opacity="0.7" style="mix-blend-mode:soft-light">
<path d="M272.194 148.778L269.333 154.134C271.48 154.453 274.046 154.7 276.92 154.846L277.373 149.296C275.425 149.178 273.677 149 272.194 148.778Z" fill="white"/>
</g>
<g opacity="0.7" style="mix-blend-mode:soft-light">
<path d="M294.324 148.753L296.514 154.203C298.919 153.871 300.846 153.451 302.152 152.98L298.008 147.918C297.131 148.233 295.875 148.517 294.324 148.753Z" fill="white"/>
</g>
</g>
<g opacity="0.7" style="mix-blend-mode:soft-light">
<path d="M308.154 171.212C308.152 171.377 308.088 171.535 307.973 171.655C307.761 171.915 307.307 172.205 306.672 172.468C305.399 172.995 303.436 173.483 301.045 173.873C298.651 174.262 295.828 174.591 292.787 174.797C289.747 175.003 286.495 175.113 283.24 175.122C279.987 175.115 276.734 175.003 273.694 174.797C270.653 174.592 267.83 174.262 265.436 173.874C263.043 173.484 261.082 172.995 259.808 172.468C259.174 172.205 258.72 171.915 258.508 171.655C258.393 171.536 258.328 171.377 258.327 171.212C258.338 171.376 258.41 171.529 258.529 171.642C258.75 171.893 259.214 172.156 259.85 172.402C261.127 172.895 263.1 173.308 265.487 173.663C267.876 174.019 270.698 174.276 273.727 174.467C276.756 174.657 279.999 174.75 283.241 174.741C286.481 174.75 289.725 174.658 292.754 174.467C294.268 174.369 295.731 174.262 297.114 174.128C298.497 173.995 299.799 173.839 300.994 173.663C303.381 173.309 305.354 172.896 306.632 172.402C307.267 172.156 307.732 171.893 307.952 171.642C308.072 171.53 308.144 171.376 308.154 171.212Z" fill="white"/>
</g>
<path opacity="0.3" d="M300.388 158.794C311.623 182.91 256.365 172.33 258.327 171.212C258.327 173.106 269.481 174.643 283.24 174.643C297 174.643 308.154 173.106 308.154 171.212L300.388 158.794Z" fill="url(#paint11_linear_454_2204)" style="mix-blend-mode:multiply"/>
<g opacity="0.7" style="mix-blend-mode:soft-light">
<path d="M270.528 160.379L263.828 173.363C266.393 173.801 269.382 174.13 273.202 174.353L276.085 160.94C273.964 160.806 272.075 160.614 270.528 160.379Z" fill="white"/>
</g>
<g opacity="0.7" style="mix-blend-mode:soft-light">
<path d="M292.095 160.823C292.095 160.823 292.587 160.858 292.627 161.155C292.667 161.453 294.402 174.28 294.402 174.28C298.051 173.983 302.774 173.45 304.92 172.946L297.687 160.104C296.406 160.367 294.024 160.649 292.095 160.823Z" fill="white"/>
</g>
<g opacity="0.3" style="mix-blend-mode:soft-light">
<path d="M283.215 217.22C262.45 219.108 258.327 216.037 258.327 216.037C258.327 216.426 258.799 216.8 259.667 217.15C263.023 218.498 272.309 219.756 283.24 219.756C294.172 219.756 303.458 218.498 306.814 217.15C307.682 216.8 308.154 216.426 308.154 216.037V179.971C308.154 199.114 305.208 215.221 283.215 217.22Z" fill="black"/>
</g>
<path d="M299.392 146.767C300.008 148.253 292.796 149.55 283.24 149.559C273.684 149.567 266.468 148.283 267.08 146.796C267.648 145.414 274.864 144.356 283.233 144.349C291.601 144.342 298.82 145.386 299.392 146.767Z" fill="#B2B2B2"/>
<path d="M298.072 147.189C298.637 148.449 292.015 149.55 283.24 149.558C274.466 149.566 267.84 148.477 268.402 147.216C268.924 146.044 275.549 145.147 283.234 145.14C290.918 145.133 297.547 146.019 298.072 147.189Z" fill="#848484"/>
<g opacity="0.3" style="mix-blend-mode:soft-light">
<path d="M298.072 147.189C297.547 146.019 290.918 145.133 283.234 145.14C275.549 145.147 268.924 146.044 268.402 147.216C268.385 147.254 268.374 147.294 268.37 147.336C268.374 147.302 268.382 147.269 268.397 147.238C268.839 146.245 274.451 145.485 280.959 145.48C287.467 145.474 293.081 146.224 293.526 147.215C294.005 148.283 288.396 149.215 280.965 149.221C274.001 149.228 268.636 148.419 268.378 147.438C268.636 148.602 274.987 149.565 283.24 149.558C292.015 149.55 298.637 148.449 298.072 147.189Z" fill="black"/>
</g>
<defs>
<linearGradient id="paint0_linear_454_2204" x1="129.676" y1="155.67" x2="26.1034" y2="259.258" gradientUnits="userSpaceOnUse">
<stop/>
<stop offset="1" stop-color="white"/>
</linearGradient>
<linearGradient id="paint1_linear_454_2204" x1="129.676" y1="155.67" x2="26.1034" y2="259.258" gradientUnits="userSpaceOnUse">
<stop stop-color="#55F3FF"/>
<stop offset="1" stop-color="#55F3FF"/>
</linearGradient>
<linearGradient id="paint2_linear_454_2204" x1="198.597" y1="216.013" x2="258.276" y2="216.013" gradientUnits="userSpaceOnUse">
<stop stop-color="#B5B8BB"/>
<stop offset="0.029" stop-color="#ADB0B4"/>
<stop offset="0.075" stop-color="#9599A2"/>
<stop offset="0.079" stop-color="#9397A0"/>
<stop offset="0.161" stop-color="#CBD0D7"/>
<stop offset="0.201" stop-color="#E1E6ED"/>
<stop offset="0.326" stop-color="#A1A7AD"/>
<stop offset="0.386" stop-color="#878D93"/>
<stop offset="0.415" stop-color="#81878E"/>
<stop offset="0.47" stop-color="#7E848C"/>
<stop offset="0.493" stop-color="#757B84"/>
<stop offset="0.558" stop-color="#606770"/>
<stop offset="0.601" stop-color="#585F69"/>
<stop offset="0.641" stop-color="#5E656E"/>
<stop offset="0.693" stop-color="#6E757E"/>
<stop offset="0.751" stop-color="#888F98"/>
<stop offset="0.814" stop-color="#ADB4BB"/>
<stop offset="0.861" stop-color="#CED4DB"/>
<stop offset="0.898" stop-color="#CAD0D7"/>
<stop offset="0.933" stop-color="#BFC5CD"/>
<stop offset="0.968" stop-color="#ABB3BB"/>
<stop offset="0.985" stop-color="#9FA7AF"/>
<stop offset="1" stop-color="#8A919A"/>
</linearGradient>
<linearGradient id="paint3_linear_454_2204" x1="207.898" y1="143.693" x2="248.975" y2="143.693" gradientUnits="userSpaceOnUse">
<stop stop-color="#B5B8BB"/>
<stop offset="0.029" stop-color="#ADB0B4"/>
<stop offset="0.075" stop-color="#9599A2"/>
<stop offset="0.079" stop-color="#9397A0"/>
<stop offset="0.161" stop-color="#CBD0D7"/>
<stop offset="0.201" stop-color="#E1E6ED"/>
<stop offset="0.326" stop-color="#A1A7AD"/>
<stop offset="0.386" stop-color="#878D93"/>
<stop offset="0.415" stop-color="#81878E"/>
<stop offset="0.47" stop-color="#7E848C"/>
<stop offset="0.493" stop-color="#757B84"/>
<stop offset="0.558" stop-color="#606770"/>
<stop offset="0.601" stop-color="#585F69"/>
<stop offset="0.641" stop-color="#5E656E"/>
<stop offset="0.693" stop-color="#6E757E"/>
<stop offset="0.751" stop-color="#888F98"/>
<stop offset="0.814" stop-color="#ADB4BB"/>
<stop offset="0.861" stop-color="#CED4DB"/>
<stop offset="0.898" stop-color="#CAD0D7"/>
<stop offset="0.933" stop-color="#BFC5CD"/>
<stop offset="0.968" stop-color="#ABB3BB"/>
<stop offset="0.985" stop-color="#9FA7AF"/>
<stop offset="1" stop-color="#8A919A"/>
</linearGradient>
<linearGradient id="paint4_linear_454_2204" x1="207.898" y1="140.576" x2="248.975" y2="140.576" gradientUnits="userSpaceOnUse">
<stop stop-color="#B5B8BB"/>
<stop offset="0.029" stop-color="#ADB0B4"/>
<stop offset="0.075" stop-color="#9599A2"/>
<stop offset="0.079" stop-color="#9397A0"/>
<stop offset="0.161" stop-color="#CBD0D7"/>
<stop offset="0.201" stop-color="#E1E6ED"/>
<stop offset="0.326" stop-color="#A1A7AD"/>
<stop offset="0.386" stop-color="#878D93"/>
<stop offset="0.47" stop-color="#7E848C"/>
<stop offset="0.493" stop-color="#757B84"/>
<stop offset="0.558" stop-color="#606770"/>
<stop offset="0.601" stop-color="#585F69"/>
<stop offset="0.641" stop-color="#5E656E"/>
<stop offset="0.693" stop-color="#6E757E"/>
<stop offset="0.751" stop-color="#888F98"/>
<stop offset="0.813" stop-color="#ADB4BB"/>
<stop offset="0.86" stop-color="#CED4DB"/>
<stop offset="0.906" stop-color="#C3C9D0"/>
<stop offset="0.987" stop-color="#A5ACB4"/>
<stop offset="1" stop-color="#9FA7AF"/>
</linearGradient>
<linearGradient id="paint5_linear_454_2204" x1="207.196" y1="128.983" x2="262.683" y2="145.405" gradientUnits="userSpaceOnUse">
<stop stop-color="#8E9397"/>
<stop offset="0.047" stop-color="#A9AEB3"/>
<stop offset="0.109" stop-color="#C8CDD3"/>
<stop offset="0.162" stop-color="#DADFE6"/>
<stop offset="0.198" stop-color="#E1E6ED"/>
<stop offset="0.351" stop-color="#CCD2D9"/>
<stop offset="0.528" stop-color="#BCC3C9"/>
<stop offset="0.728" stop-color="#B3BAC0"/>
<stop offset="1" stop-color="#B0B7BD"/>
</linearGradient>
<linearGradient id="paint6_linear_454_2204" x1="205.092" y1="146.479" x2="233.116" y2="156.708" gradientUnits="userSpaceOnUse">
<stop stop-color="#B5B8BB"/>
<stop offset="0.029" stop-color="#ADB0B4"/>
<stop offset="0.075" stop-color="#9599A2"/>
<stop offset="0.079" stop-color="#9397A0"/>
<stop offset="0.161" stop-color="#CBD0D7"/>
<stop offset="0.201" stop-color="#E1E6ED"/>
<stop offset="0.326" stop-color="#A1A7AD"/>
<stop offset="0.386" stop-color="#878D93"/>
<stop offset="0.415" stop-color="#81878E"/>
<stop offset="0.47" stop-color="#7E848C"/>
<stop offset="0.493" stop-color="#757B84"/>
<stop offset="0.558" stop-color="#606770"/>
<stop offset="0.601" stop-color="#585F69"/>
<stop offset="0.641" stop-color="#5E656E"/>
<stop offset="0.693" stop-color="#6E757E"/>
<stop offset="0.751" stop-color="#888F98"/>
<stop offset="0.814" stop-color="#ADB4BB"/>
<stop offset="0.861" stop-color="#CED4DB"/>
<stop offset="0.898" stop-color="#CAD0D7"/>
<stop offset="0.933" stop-color="#BFC5CD"/>
<stop offset="0.968" stop-color="#ABB3BB"/>
<stop offset="0.985" stop-color="#9FA7AF"/>
<stop offset="1" stop-color="#8A919A"/>
</linearGradient>
<linearGradient id="paint7_linear_454_2204" x1="258.327" y1="217.677" x2="308.154" y2="217.677" gradientUnits="userSpaceOnUse">
<stop stop-color="#B5B8BB"/>
<stop offset="0.029" stop-color="#ADB0B4"/>
<stop offset="0.075" stop-color="#9599A2"/>
<stop offset="0.079" stop-color="#9397A0"/>
<stop offset="0.161" stop-color="#CBD0D7"/>
<stop offset="0.201" stop-color="#E1E6ED"/>
<stop offset="0.326" stop-color="#A1A7AD"/>
<stop offset="0.386" stop-color="#878D93"/>
<stop offset="0.415" stop-color="#81878E"/>
<stop offset="0.47" stop-color="#7E848C"/>
<stop offset="0.493" stop-color="#757B84"/>
<stop offset="0.558" stop-color="#606770"/>
<stop offset="0.601" stop-color="#585F69"/>
<stop offset="0.641" stop-color="#5E656E"/>
<stop offset="0.693" stop-color="#6E757E"/>
<stop offset="0.751" stop-color="#888F98"/>
<stop offset="0.814" stop-color="#ADB4BB"/>
<stop offset="0.861" stop-color="#CED4DB"/>
<stop offset="0.898" stop-color="#CAD0D7"/>
<stop offset="0.933" stop-color="#BFC5CD"/>
<stop offset="0.968" stop-color="#ABB3BB"/>
<stop offset="0.985" stop-color="#9FA7AF"/>
<stop offset="1" stop-color="#8A919A"/>
</linearGradient>
<linearGradient id="paint8_linear_454_2204" x1="266.093" y1="157.296" x2="300.388" y2="157.296" gradientUnits="userSpaceOnUse">
<stop stop-color="#B5B8BB"/>
<stop offset="0.029" stop-color="#ADB0B4"/>
<stop offset="0.075" stop-color="#9599A2"/>
<stop offset="0.079" stop-color="#9397A0"/>
<stop offset="0.161" stop-color="#CBD0D7"/>
<stop offset="0.201" stop-color="#E1E6ED"/>
<stop offset="0.326" stop-color="#A1A7AD"/>
<stop offset="0.386" stop-color="#878D93"/>
<stop offset="0.415" stop-color="#81878E"/>
<stop offset="0.47" stop-color="#7E848C"/>
<stop offset="0.493" stop-color="#757B84"/>
<stop offset="0.558" stop-color="#606770"/>
<stop offset="0.601" stop-color="#585F69"/>
<stop offset="0.641" stop-color="#5E656E"/>
<stop offset="0.693" stop-color="#6E757E"/>
<stop offset="0.751" stop-color="#888F98"/>
<stop offset="0.814" stop-color="#ADB4BB"/>
<stop offset="0.861" stop-color="#CED4DB"/>
<stop offset="0.898" stop-color="#CAD0D7"/>
<stop offset="0.933" stop-color="#BFC5CD"/>
<stop offset="0.968" stop-color="#ABB3BB"/>
<stop offset="0.985" stop-color="#9FA7AF"/>
<stop offset="1" stop-color="#8A919A"/>
</linearGradient>
<linearGradient id="paint9_linear_454_2204" x1="266.093" y1="154.694" x2="300.388" y2="154.694" gradientUnits="userSpaceOnUse">
<stop stop-color="#B5B8BB"/>
<stop offset="0.029" stop-color="#ADB0B4"/>
<stop offset="0.075" stop-color="#9599A2"/>
<stop offset="0.079" stop-color="#9397A0"/>
<stop offset="0.161" stop-color="#CBD0D7"/>
<stop offset="0.201" stop-color="#E1E6ED"/>
<stop offset="0.326" stop-color="#A1A7AD"/>
<stop offset="0.386" stop-color="#878D93"/>
<stop offset="0.47" stop-color="#7E848C"/>
<stop offset="0.493" stop-color="#757B84"/>
<stop offset="0.558" stop-color="#606770"/>
<stop offset="0.601" stop-color="#585F69"/>
<stop offset="0.641" stop-color="#5E656E"/>
<stop offset="0.693" stop-color="#6E757E"/>
<stop offset="0.751" stop-color="#888F98"/>
<stop offset="0.813" stop-color="#ADB4BB"/>
<stop offset="0.86" stop-color="#CED4DB"/>
<stop offset="0.906" stop-color="#C3C9D0"/>
<stop offset="0.987" stop-color="#A5ACB4"/>
<stop offset="1" stop-color="#9FA7AF"/>
</linearGradient>
<linearGradient id="paint10_linear_454_2204" x1="265.506" y1="145.014" x2="311.834" y2="158.725" gradientUnits="userSpaceOnUse">
<stop stop-color="#8E9397"/>
<stop offset="0.047" stop-color="#A9AEB3"/>
<stop offset="0.109" stop-color="#C8CDD3"/>
<stop offset="0.162" stop-color="#DADFE6"/>
<stop offset="0.198" stop-color="#E1E6ED"/>
<stop offset="0.351" stop-color="#CCD2D9"/>
<stop offset="0.528" stop-color="#BCC3C9"/>
<stop offset="0.728" stop-color="#B3BAC0"/>
<stop offset="1" stop-color="#B0B7BD"/>
</linearGradient>
<linearGradient id="paint11_linear_454_2204" x1="263.749" y1="159.622" x2="287.148" y2="168.162" gradientUnits="userSpaceOnUse">
<stop stop-color="#B5B8BB"/>
<stop offset="0.029" stop-color="#ADB0B4"/>
<stop offset="0.075" stop-color="#9599A2"/>
<stop offset="0.079" stop-color="#9397A0"/>
<stop offset="0.161" stop-color="#CBD0D7"/>
<stop offset="0.201" stop-color="#E1E6ED"/>
<stop offset="0.326" stop-color="#A1A7AD"/>
<stop offset="0.386" stop-color="#878D93"/>
<stop offset="0.415" stop-color="#81878E"/>
<stop offset="0.47" stop-color="#7E848C"/>
<stop offset="0.493" stop-color="#757B84"/>
<stop offset="0.558" stop-color="#606770"/>
<stop offset="0.601" stop-color="#585F69"/>
<stop offset="0.641" stop-color="#5E656E"/>
<stop offset="0.693" stop-color="#6E757E"/>
<stop offset="0.751" stop-color="#888F98"/>
<stop offset="0.814" stop-color="#ADB4BB"/>
<stop offset="0.861" stop-color="#CED4DB"/>
<stop offset="0.898" stop-color="#CAD0D7"/>
<stop offset="0.933" stop-color="#BFC5CD"/>
<stop offset="0.968" stop-color="#ABB3BB"/>
<stop offset="0.985" stop-color="#9FA7AF"/>
<stop offset="1" stop-color="#8A919A"/>
</linearGradient>
</defs>
</svg>
