<svg width="438" height="296" viewBox="0 0 438 296" fill="none" xmlns="http://www.w3.org/2000/svg">
<path opacity="0.15" d="M214.34 287.623C255.515 287.623 288.894 280.121 288.894 270.868C288.894 261.615 255.515 254.113 214.34 254.113C173.166 254.113 139.787 261.615 139.787 270.868C139.787 280.121 173.166 287.623 214.34 287.623Z" fill="black"/>
<path d="M205.783 262.273C205.333 263.737 198.834 273.33 194.255 274.282C192.375 274.653 190.435 274.576 188.591 274.058H188.583C186.277 273.426 184.437 272.266 183.722 271.218C183.265 270.577 182.953 269.846 182.807 269.074C182.741 268.76 182.735 268.437 182.79 268.121L189.234 266.017C189.234 266.017 205.189 257.944 205.389 258.504C205.582 259.065 206.233 260.809 205.783 262.273Z" fill="#262E35"/>
<path d="M184.655 265.181C184.655 265.181 182.848 266.549 182.791 268.124C182.735 269.7 190.643 273.581 194.597 272.287C194.597 272.287 197.252 270.656 198.946 268.293C200.641 265.93 201.601 264.412 203.579 262.668C205.555 260.924 206.516 259.743 204.991 258.505C203.465 257.267 192.789 260.361 189.965 261.992C187.141 263.624 184.655 265.181 184.655 265.181Z" fill="#5C6368"/>
<path d="M205.469 260.105C204.57 262.137 201.662 262.977 201.123 264.697C200.585 266.409 199.428 268.322 198.103 269.106C196.769 269.898 196.857 270.066 195.13 271.442C193.411 272.826 191.659 271.666 191.322 270.882L191.274 270.722C191.202 270.25 191.804 270.074 191.949 269.61L191.957 269.594C192 269.396 191.975 269.19 191.885 269.01C191.434 267.954 190.68 269.458 189.78 269.906C189.217 270.186 186.735 270.058 184.976 269.346C183.899 268.914 183.096 268.265 183.152 267.353C183.176 266.921 183.642 266.273 184.397 265.489C186.165 263.649 189.507 261.089 192.326 259.049C194.97 257.12 197.154 255.656 197.154 255.656L194.728 243.191L192.335 230.901L204.385 232.102C204.385 232.102 203.935 247.255 204.16 252.28C204.385 257.304 206.377 258.08 205.469 260.105Z" fill="#B7765A"/>
<path d="M187.55 264.802C186.597 264.794 185.648 264.913 184.727 265.155C184.612 265.269 184.502 265.38 184.397 265.489C185.964 265.545 188.318 265.801 188.832 266.833C189.434 268.033 186.438 268.969 184.976 269.346C186.177 269.796 187.449 270.032 188.733 270.043C189.221 270.043 189.599 269.995 189.78 269.906C190.454 269.57 191.047 268.641 191.491 268.641C191.64 268.641 191.772 268.745 191.885 269.01C191.944 269.137 191.976 269.274 191.979 269.414C191.98 269.474 191.972 269.535 191.957 269.593C192.158 269.385 192.495 269.017 192.905 268.546C192.939 268.504 192.981 268.47 193.03 268.446C193.079 268.423 193.132 268.411 193.186 268.412C193.945 268.412 195.147 270.558 193.411 271.05C193.122 271.136 192.823 271.182 192.521 271.186C192.293 271.195 192.065 271.159 191.851 271.079C191.637 271 191.441 270.878 191.274 270.722L191.322 270.881C191.546 271.401 192.39 272.086 193.435 272.086C194.058 272.075 194.658 271.847 195.13 271.441C196.273 270.531 196.621 270.15 197.112 269.766C193.971 265.633 190.129 264.802 187.55 264.802ZM192.84 233.496L194.728 243.191C196.319 243.646 199.525 244.879 200.697 247.703C202.28 251.527 203.068 256.48 202.618 258.28C202.168 260.08 199.677 261.881 199.677 261.881C199.677 261.881 197.372 258.943 193.579 258.943C193.159 258.943 192.74 258.978 192.326 259.048C191.514 259.636 190.658 260.267 189.81 260.911C191.325 260.277 192.673 260.015 193.863 260.015C197.949 260.015 200.194 263.093 201.106 264.75C201.112 264.732 201.118 264.714 201.123 264.697C201.662 262.977 204.57 262.137 205.47 260.104C205.621 259.784 205.702 259.435 205.705 259.082C205.706 257.875 204.735 256.781 204.322 254.003C204.239 253.432 204.185 252.856 204.16 252.279C204.115 251.268 204.097 249.848 204.097 248.223C204.098 246.172 204.127 243.796 204.166 241.509C204.141 241.469 204.115 241.428 204.089 241.385C204.068 241.345 204.051 241.303 204.04 241.26C203.966 241.002 203.912 240.454 203.876 239.654C198.695 238.232 195.42 236.262 192.84 233.496Z" fill="#A76348"/>
<path d="M244.767 268.125C244.767 268.125 245.077 269.391 243.835 271.219C242.592 273.048 237.875 275.242 233.3 274.285C228.724 273.329 222.228 263.737 221.776 262.275C221.324 260.812 221.974 259.068 222.172 258.506C222.369 257.943 238.327 266.016 238.327 266.016L244.767 268.125Z" fill="#262E35"/>
<path d="M242.902 265.181C242.902 265.181 244.71 266.549 244.767 268.124C244.823 269.7 236.915 273.581 232.961 272.287C232.961 272.287 230.306 270.656 228.611 268.293C226.917 265.93 225.957 264.412 223.979 262.668C222.002 260.924 221.042 259.743 222.567 258.505C224.092 257.267 234.768 260.361 237.593 261.992C240.417 263.624 242.902 265.181 242.902 265.181Z" fill="#5C6368"/>
<path d="M235.22 230.902L230.4 255.655C230.4 255.655 244.259 264.956 244.409 267.356C244.56 269.756 238.685 270.357 237.781 269.906C236.877 269.456 236.124 267.956 235.672 269.007C235.221 270.056 236.576 270.094 236.237 270.882C235.898 271.669 234.147 272.822 232.424 271.444C230.701 270.066 230.786 269.897 229.458 269.109C228.131 268.322 226.973 266.409 226.436 264.693C225.9 262.978 222.991 262.134 222.087 260.108C221.183 258.083 223.17 257.305 223.396 252.28C223.622 247.254 223.17 232.102 223.17 232.102L235.22 230.902Z" fill="#B7765A"/>
<path d="M222.376 257.167L222.373 257.168C222.212 257.592 222.067 257.96 221.971 258.304L221.972 258.304C222.068 257.959 222.213 257.593 222.376 257.167Z" fill="#979797"/>
<path d="M236.261 270.473C236.285 270.539 236.295 270.609 236.291 270.679C236.287 270.75 236.268 270.818 236.237 270.881C236.012 271.403 235.168 272.085 234.123 272.086H234.124C235.171 272.086 236.015 271.401 236.239 270.881C236.27 270.818 236.288 270.75 236.292 270.679C236.296 270.609 236.285 270.539 236.261 270.473ZM236.065 268.64C236.003 268.64 235.943 268.66 235.892 268.696C235.943 268.66 236.003 268.641 236.065 268.641C236.485 268.641 237.034 269.466 237.665 269.842C237.036 269.465 236.484 268.64 236.065 268.64ZM242.838 265.161C243.777 266.088 244.378 266.866 244.409 267.356C244.412 267.407 244.413 267.459 244.41 267.51C244.413 267.458 244.412 267.405 244.409 267.353C244.378 266.864 243.777 266.087 242.84 265.162L242.838 265.161ZM225.854 263.739L225.851 263.744C226.107 264.014 226.304 264.332 226.432 264.681C226.31 264.329 226.112 264.008 225.854 263.739Z" fill="#4A5155"/>
<path d="M233.898 271.327C233.154 271.327 232.197 270.968 231.089 269.754C231.089 269.754 231.58 268.634 232.857 268.634C234.134 268.634 235.604 270.578 235.604 270.578C235.386 270.812 235.122 270.998 234.828 271.127C234.535 271.256 234.218 271.324 233.898 271.327ZM238.996 269.48C238.703 269.491 238.41 269.456 238.127 269.378C237.267 269.082 235.307 267.17 235.307 267.17C236.829 266.228 238.279 265.881 239.517 265.881C242.225 265.881 243.922 267.538 243.172 268.258C242.33 269.071 240.278 269.48 238.996 269.48ZM240.006 264.807C237.426 264.807 233.587 265.636 230.445 269.766C230.935 270.15 231.285 270.531 232.423 271.442C232.897 271.847 233.498 272.075 234.123 272.086C235.168 272.086 236.012 271.404 236.237 270.882C236.268 270.819 236.287 270.75 236.291 270.68C236.295 270.61 236.285 270.54 236.261 270.474C236.09 270.038 235.312 269.84 235.669 269.01C235.713 268.887 235.79 268.778 235.892 268.696C235.943 268.66 236.003 268.641 236.065 268.641C236.484 268.641 237.036 269.466 237.665 269.843C237.704 269.866 237.742 269.887 237.781 269.906C237.961 269.995 238.338 270.043 238.826 270.043C240.725 270.043 244.298 269.323 244.409 267.531L244.41 267.522C244.41 267.518 244.41 267.514 244.41 267.511C244.413 267.459 244.412 267.408 244.409 267.356C244.378 266.866 243.777 266.089 242.838 265.162C241.914 264.918 240.962 264.798 240.006 264.807ZM234.155 236.363C233.225 237.09 232.23 237.731 231.183 238.278C230.457 238.666 229.709 239.012 228.942 239.313C228.942 239.313 228.254 239.475 227.078 239.697C227.012 240.135 226.941 240.559 226.866 240.968C225.725 241.288 224.566 241.541 223.395 241.726C223.409 242.512 223.422 243.307 223.433 244.095C224.388 243.631 226.083 242.918 227.411 242.918C227.96 242.918 228.446 243.04 228.791 243.351C230.326 244.735 228.808 255.452 222.376 257.167C222.213 257.593 222.068 257.959 221.972 258.304C223.282 257.928 226.077 257.096 227.434 256.48C227.625 256.394 227.832 256.351 228.041 256.353C229.805 256.353 232.029 259.105 232.029 259.105C232.029 259.105 227.895 259.664 225.854 263.74C226.113 264.008 226.31 264.33 226.432 264.681C226.434 264.686 226.436 264.692 226.438 264.697C226.443 264.713 226.448 264.729 226.453 264.745C227.369 263.085 229.614 260.016 233.695 260.016C234.887 260.016 236.237 260.278 237.756 260.914C237.755 260.913 237.753 260.913 237.752 260.911C234.137 258.164 230.398 255.656 230.398 255.656L234.155 236.363Z" fill="#A76348"/>
<path d="M242.902 265.181C242.902 265.181 235.446 262.781 230.174 270.132C230.174 270.132 227.463 269.082 225.957 265.781C225.957 265.781 229.195 257.08 238.082 261.056C238.082 261.056 240.944 262.068 242.902 265.181Z" fill="#262E35"/>
<path d="M201.598 265.777C200.095 269.082 197.38 270.129 197.38 270.129C192.11 262.777 184.654 265.177 184.654 265.177C184.759 265.017 184.863 264.857 184.968 264.713C185.934 263.339 187.211 262.21 188.695 261.417C188.948 261.282 189.208 261.161 189.475 261.057C198.36 257.08 201.598 265.777 201.598 265.777Z" fill="#262E35"/>
<path d="M192.683 260.889C191.338 260.91 189.999 261.088 188.695 261.417C187.211 262.21 185.934 263.339 184.968 264.713C190.43 262.673 199.991 264.721 196.97 262.161C195.841 261.207 194.273 260.889 192.683 260.889Z" fill="#424B53"/>
<path d="M182.806 269.073C182.953 269.845 183.265 270.577 183.722 271.217C184.437 272.265 186.277 273.425 188.583 274.058H188.591C189.443 274.219 190.309 274.302 191.177 274.305C192.707 274.305 193.826 274.016 193.805 273.578C193.765 272.641 191.997 273.578 187.595 271.929C184.67 270.833 183.353 269.705 182.806 269.073Z" fill="#424B53"/>
<path d="M234.138 261.068C228.843 261.069 226.964 265.65 226.964 265.65L226.738 266.269L229.901 269.757C231.878 265.2 238.374 263.962 238.374 263.962L235.776 261.206C235.235 261.116 234.687 261.07 234.138 261.068Z" fill="#424B53"/>
<path d="M230.604 171.261C230.604 171.261 238.289 187.808 240.573 205.39C242.858 222.972 238.496 228.557 237.043 232.694C235.589 236.831 228.942 239.313 228.942 239.313C228.942 239.313 215.996 242.347 206.442 240.279C196.888 238.21 193.011 234.763 189.411 228.833C185.811 222.904 191.211 174.363 194.119 168.434C197.027 162.504 228.043 164.573 230.604 171.261Z" fill="#CCC0AE"/>
<path d="M189.431 228.867C190.495 230.618 191.586 232.151 192.84 233.496L192.84 233.495C191.586 232.15 190.496 230.617 189.432 228.867L189.431 228.867ZM189.005 227.869C189.016 227.905 189.028 227.942 189.039 227.977C189.028 227.942 189.016 227.905 189.005 227.869ZM188.598 225.918L188.596 225.918C188.666 226.404 188.747 226.845 188.838 227.239C188.747 226.845 188.668 226.404 188.598 225.918ZM188.677 206.705L188.67 206.708C188.546 208.611 188.441 210.47 188.368 212.255C188.445 210.47 188.549 208.61 188.677 206.705ZM238.435 194.158C238.564 194.684 238.69 195.214 238.814 195.749C238.692 195.213 238.566 194.683 238.435 194.158ZM191.599 179.866C191.01 183.663 190.434 188.075 189.929 192.672C190.434 188.075 191.01 183.664 191.599 179.866ZM231.461 173.205L231.46 173.212C232.485 175.627 234.286 180.12 236.064 185.739L236.065 185.74C234.286 180.114 232.484 175.62 231.461 173.205Z" fill="#BFBFBF"/>
<path d="M192.84 233.495L192.84 233.497C195.42 236.263 198.695 238.232 203.876 239.655V239.653C198.693 238.231 195.418 236.261 192.84 233.495Z" fill="#98543B"/>
<path d="M234.882 235.741C234.648 235.957 234.405 236.163 234.157 236.361L234.157 236.361C234.405 236.163 234.648 235.957 234.882 235.741Z" fill="#BFBFBF"/>
<path d="M234.159 236.36L234.155 236.363L234.155 236.364L234.159 236.361L234.159 236.36Z" fill="#AA664B"/>
<path d="M234.155 236.362C233.225 237.089 232.23 237.73 231.183 238.277C232.23 237.731 233.225 237.09 234.155 236.363L234.155 236.362Z" fill="#98543B"/>
<path d="M228.009 219.145C228.113 227.083 227.886 234.412 227.079 239.696C228.257 239.472 228.946 239.311 228.946 239.311C229.711 239.01 230.458 238.665 231.183 238.278C232.23 237.731 233.225 237.09 234.155 236.363L234.157 236.361C234.405 236.163 234.648 235.957 234.882 235.742C235.833 234.865 236.637 233.843 237.039 232.693C235.79 232.336 234.638 231.702 233.669 230.84C232.707 229.962 231.875 228.952 231.198 227.842C229.835 225.624 228.997 223.148 228.344 220.664C228.224 220.159 228.112 219.653 228.009 219.145ZM231.46 173.212C231.456 173.243 231.455 173.259 231.455 173.259C229.972 173.979 228.419 174.547 226.82 174.952C226.341 175.078 225.852 175.194 225.355 175.301C225.86 180.642 226.607 189.199 227.184 198.596C227.763 200.783 228.494 202.928 229.37 205.015C230.394 207.494 231.677 209.878 233.352 211.967C234.999 214.11 237.177 215.788 239.674 216.836C237.043 216.089 234.693 214.425 232.916 212.329C231.097 210.251 229.785 207.8 228.69 205.298C228.194 204.067 227.75 202.817 227.357 201.551C227.598 205.827 227.795 210.221 227.914 214.521C228.179 216.53 228.562 218.522 229.06 220.487C229.646 222.944 230.471 225.355 231.688 227.556C232.899 229.733 234.633 231.729 237.039 232.693L237.04 232.692C237.35 231.816 237.786 230.875 238.266 229.772C228.776 225.506 228.525 206.943 228.525 206.943C232.114 215.665 237.52 218.689 240.954 219.733C241.157 217.862 241.245 215.981 241.22 214.099C236.693 210.819 229.759 203.92 227.388 191.425C227.388 191.425 231.848 199.081 237.564 202.185C237.564 202.185 229.773 194.529 227.174 184.394C227.174 184.394 233.503 192.874 238.975 196.47C238.922 196.228 238.868 195.988 238.814 195.749C238.69 195.214 238.564 194.684 238.435 194.158C238.396 194.005 238.357 193.851 238.317 193.698C235.275 190.638 230.113 184.777 227.802 178.812C227.802 178.812 231.729 182.871 236.064 185.739C234.286 180.12 232.485 175.627 231.46 173.212ZM193.272 171.048C192.737 173.175 192.162 176.24 191.599 179.866C191.01 183.664 190.434 188.075 189.929 192.672C189.756 194.246 189.592 195.842 189.438 197.441C199.703 191.065 204.089 180.018 204.089 180.018C202.776 198.276 192.345 204.92 188.677 206.705C188.549 208.61 188.445 210.471 188.368 212.255C188.363 212.387 188.357 212.519 188.352 212.65C193.869 212.15 203.395 198.978 203.395 198.978C200.7 211.871 191.558 218.63 191.558 218.63C199.245 215.665 203.328 208.149 203.328 208.149C200.597 223.735 190.258 225.696 188.598 225.918C188.667 226.404 188.747 226.845 188.838 227.239C188.89 227.465 188.946 227.675 189.005 227.869C189.016 227.905 189.028 227.942 189.039 227.977C189.777 228.173 190.537 228.271 191.3 228.271C197.913 228.271 203.188 220.976 203.188 220.976C201.053 227.961 196.86 229.563 193.468 229.563C192.094 229.549 190.731 229.315 189.432 228.867C190.496 230.617 191.586 232.15 192.84 233.495C195.419 236.261 198.693 238.231 203.876 239.653C203.739 236.622 203.857 229.991 204.101 221.951C203.955 222.492 203.785 223.027 203.595 223.555C203.027 225.171 202.168 226.67 201.059 227.978C199.899 229.25 198.4 230.273 196.711 230.696C196.126 230.862 195.521 230.944 194.913 230.939C193.802 230.939 192.699 230.699 191.661 230.419C192.084 230.447 192.502 230.48 192.915 230.521C193.169 230.554 193.425 230.573 193.681 230.577C193.839 230.577 193.996 230.566 194.152 230.542L195.377 230.461L196.556 230.152C198.092 229.642 199.458 228.723 200.505 227.493C201.615 226.308 202.398 224.842 203.07 223.344C203.485 222.404 203.844 221.441 204.147 220.46C204.209 218.497 204.278 216.458 204.352 214.379C204.31 214.564 204.266 214.749 204.22 214.933C203.682 217.02 202.798 219.002 201.604 220.799C200.391 222.597 198.798 224.11 196.937 225.231C196.463 225.489 196.025 225.812 195.524 226.013L194.033 226.625C193.544 226.848 193.01 226.938 192.492 227.066C191.972 227.193 191.452 227.31 190.934 227.419C192.937 226.711 194.941 226.006 196.628 224.757C197.52 224.215 198.264 223.477 199.043 222.799L200.078 221.638C200.432 221.259 200.684 220.798 200.994 220.385C202.188 218.689 203.046 216.769 203.676 214.779C203.995 213.781 204.247 212.762 204.432 211.731C204.438 211.701 204.445 211.671 204.451 211.64C204.937 198.453 205.589 184.089 205.976 175.849C203.277 175.564 200.601 175.098 197.966 174.454L197.961 174.452L197.959 174.452C195.393 173.796 193.734 173.07 193.523 172.459C193.52 172.449 193.517 172.44 193.514 172.431C193.511 172.421 193.509 172.411 193.506 172.401C193.396 171.956 193.318 171.504 193.272 171.048Z" fill="#C2B4A0"/>
<path d="M225.273 189.395C225.663 192.071 226.191 194.726 226.855 197.349C227.521 199.962 228.311 202.545 229.37 205.015C230.394 207.494 231.677 209.878 233.352 211.967C234.999 214.11 237.177 215.788 239.674 216.836C237.043 216.089 234.693 214.425 232.916 212.329C231.097 210.251 229.785 207.8 228.69 205.299C227.664 202.766 226.866 200.149 226.304 197.476C225.729 194.817 225.384 192.113 225.273 189.395Z" fill="#AFA18E"/>
<path d="M227.074 205.39C227.194 207.941 227.398 210.481 227.709 213.004C228.034 215.523 228.415 218.038 229.06 220.486C229.646 222.944 230.471 225.355 231.688 227.555C232.899 229.733 234.635 231.73 237.043 232.694C235.793 232.337 234.639 231.703 233.669 230.839C232.707 229.961 231.875 228.952 231.198 227.841C229.835 225.623 228.997 223.147 228.344 220.663C227.752 218.163 227.351 215.621 227.147 213.061C226.933 210.509 226.908 207.945 227.074 205.39Z" fill="#AFA18E"/>
<path d="M204.85 208.597C205.003 210.715 204.738 212.858 204.22 214.933C203.682 217.02 202.798 219.002 201.604 220.799C200.391 222.597 198.798 224.11 196.937 225.231C196.463 225.489 196.025 225.812 195.524 226.013L194.033 226.625C193.544 226.848 193.01 226.938 192.492 227.066C191.972 227.193 191.452 227.31 190.934 227.419C192.937 226.711 194.941 226.006 196.628 224.757C197.52 224.215 198.264 223.477 199.043 222.799L200.078 221.638C200.431 221.259 200.684 220.798 200.994 220.385C202.188 218.689 203.046 216.769 203.676 214.78C203.995 213.781 204.247 212.762 204.432 211.731C204.642 210.697 204.782 209.65 204.85 208.597Z" fill="#AFA18E"/>
<path d="M204.642 218.629C204.54 220.313 204.187 221.974 203.595 223.555C203.027 225.171 202.168 226.67 201.059 227.978C199.899 229.25 198.4 230.273 196.711 230.696C195.015 231.188 193.261 230.851 191.661 230.419C192.084 230.447 192.502 230.48 192.915 230.521C193.324 230.585 193.741 230.592 194.152 230.542L195.377 230.461L196.556 230.152C198.092 229.643 199.458 228.723 200.505 227.493C201.615 226.308 202.398 224.842 203.07 223.345C203.74 221.825 204.266 220.246 204.642 218.629Z" fill="#AFA18E"/>
<path d="M224.789 169.606C224.789 169.606 230.396 221.731 226.866 240.968C226.866 240.968 224.443 241.658 222.781 241.795C221.119 241.933 225.827 244.416 219.873 244.553C217.472 244.609 216.692 244.104 216.272 243.599C215.649 242.852 215.813 242.105 212.673 243.174C209.541 244.241 210.923 244.087 212.525 243.933C213.614 243.828 214.806 243.723 214.75 244.002C214.612 244.691 205.611 246.07 205.611 243.726C205.611 241.382 205.335 243.45 204.088 241.382C202.842 239.313 206.304 168.985 206.304 168.985L224.789 169.606Z" fill="#EADBCC"/>
<path d="M214.608 243.866C214.71 243.894 214.763 243.938 214.75 244.002C214.726 244.12 214.444 244.258 213.993 244.394L213.992 244.4C214.443 244.261 214.731 244.121 214.753 244.003C214.766 243.938 214.712 243.894 214.608 243.866Z" fill="#BFBFBF"/>
<path d="M214.153 243.825C214.125 243.825 214.096 243.826 214.066 243.826C214.044 244.001 214.022 244.189 213.993 244.393C214.444 244.257 214.726 244.119 214.75 244.001C214.763 243.938 214.71 243.894 214.608 243.866C214.458 243.834 214.306 243.82 214.153 243.825Z" fill="#E5D3C2"/>
<path d="M204.166 241.508V241.509C205.349 243.366 205.61 241.434 205.61 243.723C205.61 243.782 205.616 243.841 205.629 243.898C205.617 243.842 205.611 243.784 205.611 243.726C205.611 241.431 205.346 243.363 204.166 241.508Z" fill="#BFBFBF"/>
<path d="M204.04 241.26C204.051 241.303 204.067 241.345 204.089 241.384C204.115 241.427 204.141 241.469 204.166 241.508V241.507C204.14 241.467 204.114 241.425 204.088 241.381C204.067 241.343 204.051 241.302 204.04 241.26Z" fill="#98543B"/>
<path d="M211.902 244.821C210.973 244.955 210.035 245.027 209.096 245.036L209.096 245.039C210.035 245.032 210.973 244.961 211.902 244.826L211.902 244.821ZM205.748 244.181C205.805 244.266 205.873 244.342 205.95 244.407L205.95 244.401C205.873 244.338 205.805 244.264 205.748 244.181ZM210.795 243.981C210.803 244.025 210.913 244.042 211.093 244.042C211.298 244.042 211.595 244.02 211.932 243.989V243.988C211.595 244.018 211.298 244.04 211.092 244.04C210.915 244.04 210.805 244.024 210.795 243.981ZM222.961 243.252C223.133 243.88 222.733 244.487 219.873 244.553C219.807 244.555 219.742 244.556 219.679 244.556L219.678 244.562L219.87 244.554C222.734 244.487 223.134 243.88 222.961 243.252ZM214.965 242.641C214.938 242.641 214.909 242.641 214.88 242.642C214.904 242.642 214.929 242.641 214.952 242.641C215.123 242.636 215.294 242.664 215.454 242.723L215.455 242.719C215.298 242.663 215.132 242.636 214.965 242.641ZM223.079 241.766C222.978 241.777 222.878 241.787 222.781 241.795C222.579 241.812 222.471 241.863 222.427 241.941C222.472 241.864 222.579 241.813 222.78 241.796C222.877 241.788 222.977 241.777 223.079 241.766Z" fill="#BFBFBF"/>
<path d="M205.976 175.849C205.157 193.286 203.152 238.142 204.04 241.26C204.051 241.302 204.067 241.343 204.088 241.382C204.115 241.426 204.141 241.468 204.166 241.508C205.346 243.364 205.611 241.432 205.611 243.726C205.611 243.784 205.617 243.842 205.629 243.899C205.651 244 205.691 244.096 205.748 244.182C205.805 244.264 205.873 244.338 205.951 244.401C206.49 229.282 209.569 182.253 209.761 179.326L208.107 232.007L209.628 219.321L209.096 245.036C210.035 245.027 210.973 244.955 211.902 244.821L211.932 243.989C211.595 244.02 211.299 244.043 211.093 244.043C210.913 244.043 210.803 244.025 210.795 243.982C210.775 243.903 211.094 243.737 211.954 243.422L214.199 184.151V242.73C214.423 242.682 214.651 242.653 214.88 242.642C214.909 242.641 214.938 242.641 214.965 242.641C215.132 242.636 215.298 242.663 215.455 242.72C215.501 242.48 215.547 242.224 215.592 241.955L216.089 225.138C216.241 219.403 216.403 213.668 216.455 207.932C216.572 202.197 216.595 196.462 216.523 190.727C216.518 187.859 216.428 184.994 216.334 182.128L216.16 177.829L216.053 176.311C215.521 176.324 214.99 176.33 214.459 176.33C212.235 176.33 210.029 176.224 207.929 176.043L207.834 182.23L207.626 190.783L207.088 207.886L206.379 224.982C206.122 230.68 205.82 236.377 205.473 242.071C205.546 236.366 205.659 230.663 205.813 224.961L206.351 207.859L207.058 190.763L207.474 182.217L207.83 176.034C207.202 175.979 206.582 175.917 205.976 175.849ZM225.355 175.301C224.257 175.537 223.121 175.728 221.961 175.878C222.557 180.575 222.879 185.306 223.127 190.033C223.428 195.782 223.533 201.537 223.598 207.291C223.611 213.045 223.592 218.799 223.451 224.55C223.321 230.302 223.098 236.05 222.781 241.795L222.885 224.543C222.905 218.793 222.935 213.044 222.861 207.296C222.853 201.548 222.752 195.801 222.559 190.057C222.491 187.184 222.344 184.314 222.192 181.445L221.929 177.141L221.815 175.897C219.948 176.127 218.071 176.265 216.19 176.308C216.706 181.093 216.94 185.907 217.091 190.716C217.275 196.457 217.252 202.202 217.192 207.943C217.079 213.684 216.928 219.424 216.655 225.158C216.403 230.686 216.061 236.208 215.631 241.725C217.858 228.09 219.316 179.738 219.316 179.738C222.041 201.29 220.123 237.131 219.679 244.557C219.742 244.556 219.807 244.555 219.873 244.553C222.733 244.487 223.133 243.88 222.961 243.252C222.817 242.731 222.279 242.195 222.427 241.941C222.471 241.864 222.579 241.812 222.781 241.795C222.878 241.787 222.978 241.777 223.079 241.766C223.426 241.725 223.796 241.666 224.161 241.598C224.626 231.066 224.855 182.224 224.855 182.224C228.001 198.272 226.694 234.251 226.428 241.083C226.701 241.009 226.864 240.966 226.864 240.966C229.68 225.624 226.683 189.351 225.355 175.301Z" fill="#E5D3C2"/>
<path d="M222.781 241.796L222.885 224.543C222.905 218.793 222.934 213.044 222.861 207.296C222.853 201.548 222.752 195.801 222.559 190.057C222.491 187.184 222.344 184.314 222.192 181.445L221.929 177.141L221.535 172.847C222.415 178.536 222.825 184.288 223.126 190.034C223.428 195.782 223.533 201.537 223.598 207.291C223.611 213.045 223.592 218.799 223.45 224.55C223.321 230.302 223.098 236.051 222.781 241.796Z" fill="#CCBFB4"/>
<path d="M215.581 242.347L216.089 225.138C216.241 219.403 216.403 213.668 216.454 207.932C216.572 202.197 216.594 196.462 216.523 190.728C216.518 187.86 216.428 184.994 216.334 182.128L216.16 177.829L215.858 173.536C216.612 179.231 216.911 184.977 217.091 190.716C217.275 196.457 217.251 202.202 217.192 207.943C217.079 213.684 216.928 219.424 216.655 225.159C216.393 230.894 216.035 236.623 215.581 242.347Z" fill="#CCBFB4"/>
<path d="M205.473 242.071C205.546 236.367 205.659 230.663 205.813 224.962L206.351 207.859L207.058 190.763L207.474 182.217L207.966 173.674L207.834 182.23L207.626 190.783L207.088 207.886L206.379 224.982C206.122 230.68 205.82 236.377 205.473 242.071Z" fill="#CCBFB4"/>
<path d="M210.873 244.139C210.83 238.621 210.828 233.103 210.867 227.587L211.058 211.039L211.42 194.493L211.662 186.22L211.981 177.948L212.023 186.224L211.988 194.499L211.796 211.049L211.433 227.596C211.291 233.112 211.105 238.626 210.873 244.139Z" fill="#CCBFB4"/>
<path d="M236.461 114.295C236.461 114.295 236.323 138.523 234.93 146.545C233.537 154.579 231.455 173.259 231.455 173.259C219.236 179.343 194.219 174.92 193.515 172.435C193.239 171.473 193.088 169.331 193.005 166.652C192.867 162.394 192.936 156.777 193.102 152.368C193.212 149.346 192.688 145.583 192.067 142.259C191.626 139.979 191.13 137.892 190.73 136.367L190.716 136.299C190.329 134.76 190.04 133.812 190.04 133.812C190.04 133.812 179.062 145.72 177.532 148.893C176.014 152.08 171.974 174.646 171.974 174.646C171.974 174.646 174.346 180.881 174.484 183.367C174.621 185.854 174.208 189.727 174.208 189.727C174.008 189.665 173.818 189.577 173.642 189.465C172.498 188.751 172.305 187.254 171.698 185.441C171.298 184.274 171.036 183.642 170.608 183.381C170.291 183.161 169.85 183.189 169.188 183.367C167.671 183.78 167.064 195.784 165.947 195.399C164.844 195.042 164.099 192.089 164.099 192.089C163.239 190.64 162.576 189.083 162.127 187.46C161.885 186.557 161.737 185.632 161.685 184.7C161.506 180.826 165.588 175.292 165.588 175.292C165.588 175.292 165.699 158.095 167.588 146.861C167.781 145.761 167.974 144.731 168.195 143.77C168.622 141.957 169.105 140.419 169.657 139.306C173.546 131.56 186.151 112.551 190.785 109.776C191.4 109.415 192.035 109.09 192.688 108.801C193.433 108.472 194.26 108.142 195.115 107.854C196.494 107.345 197.942 106.892 199.335 106.494C202.976 105.45 206.162 104.791 206.162 104.791L206.534 97.9649L217.691 95.4648L217.139 105.574C219.332 106.192 222.256 107.373 225.138 108.691C230.848 111.26 236.461 114.295 236.461 114.295Z" fill="#B7765A"/>
<path d="M236.465 114.3C236.465 114.3 236.327 138.523 234.934 146.545C233.54 154.576 231.455 173.257 231.455 173.257C219.229 179.35 194.216 174.921 193.514 172.43C192.822 169.94 192.822 159.556 193.099 152.362C193.218 149.34 192.694 145.59 192.061 142.253C197.437 133.769 193.958 114.783 192.684 108.808C194.651 107.932 197.082 107.135 199.335 106.495C199.908 111.987 201.47 123.68 204.632 125.787C208.803 128.552 218.113 129.665 223.124 127.036C226.819 125.088 225.88 114.231 225.139 108.69C230.842 111.259 236.465 114.3 236.465 114.3Z" fill="#E2DBD3"/>
<path d="M168.312 180.793C167.992 180.8 167.678 180.882 167.395 181.032C165.308 182.072 165.628 187.581 162.882 187.581C162.626 187.578 162.371 187.537 162.127 187.46C162.576 189.083 163.239 190.64 164.099 192.089C164.099 192.089 164.844 195.042 165.947 195.399C165.964 195.405 165.982 195.408 165.999 195.408C167.083 195.408 167.695 183.773 169.188 183.367C169.464 183.284 169.75 183.236 170.039 183.225C170.241 183.216 170.44 183.271 170.608 183.381C170.269 182.29 169.57 180.793 168.312 180.793Z" fill="#A76348"/>
<path d="M188.082 120.503C188.082 120.503 182.622 144.362 171.328 144.362C170.256 144.354 169.195 144.154 168.195 143.77C167.974 144.731 167.781 145.761 167.588 146.86C169.671 147.19 172.443 147.972 173.601 149.923C175.546 153.219 168.76 174.069 168.76 174.069C168.76 174.069 174.939 183.408 173.642 189.465C173.818 189.577 174.008 189.664 174.208 189.726C174.208 189.726 174.513 186.866 174.512 184.483C174.512 184.093 174.503 183.716 174.484 183.367C174.346 180.881 171.974 174.645 171.974 174.645C171.974 174.645 176.014 152.079 177.532 148.893C179.062 145.72 190.04 133.812 190.04 133.812C190.04 133.812 190.329 134.76 190.716 136.298L189.24 129.774L188.082 120.503Z" fill="#A76348"/>
<path d="M197.961 174.452L197.966 174.454C197.964 174.453 197.963 174.453 197.961 174.452ZM193.523 172.458C193.734 173.07 195.393 173.795 197.959 174.452C195.398 173.795 193.739 173.071 193.523 172.458ZM231.626 171.747C231.516 172.704 231.455 173.257 231.455 173.257C229.972 173.978 228.419 174.546 226.82 174.951C228.419 174.546 229.972 173.979 231.455 173.259C231.455 173.259 231.516 172.705 231.626 171.747ZM193.187 170.18C193.232 170.928 193.338 171.671 193.506 172.401C193.341 171.67 193.235 170.927 193.187 170.18ZM206.309 102.088L206.162 104.791C206.162 104.791 202.976 105.45 199.335 106.494C199.186 106.537 199.036 106.58 198.886 106.624C199.036 106.58 199.186 106.537 199.335 106.495C199.549 108.542 199.9 111.45 200.42 114.403C204.628 118.43 211.002 122.517 220.531 124.857C220.546 124.622 220.567 124.392 220.595 124.166C220.903 121.64 222.404 118.866 224.183 116.071L224.184 116.066C224.665 115.31 225.166 114.552 225.67 113.798C225.535 111.905 225.331 110.122 225.14 108.692L225.139 108.692C222.256 107.373 219.332 106.192 217.139 105.574L217.318 102.309C216.232 102.443 215.121 102.531 213.985 102.572C213.981 102.572 213.979 102.572 213.976 102.573C213.959 102.573 213.941 102.574 213.924 102.574L213.918 102.575C213.865 102.576 213.812 102.578 213.759 102.58C213.753 102.58 213.746 102.58 213.74 102.58C213.726 102.581 213.71 102.581 213.696 102.581C213.69 102.582 213.683 102.582 213.677 102.582C213.654 102.583 213.631 102.583 213.607 102.584C213.595 102.584 213.584 102.584 213.573 102.585L213.543 102.585C213.53 102.586 213.518 102.586 213.505 102.586C213.494 102.587 213.482 102.587 213.471 102.587C213.459 102.588 213.449 102.588 213.437 102.588C213.426 102.588 213.415 102.588 213.404 102.589C213.388 102.589 213.371 102.589 213.355 102.59C213.345 102.59 213.334 102.59 213.324 102.59C213.307 102.591 213.289 102.591 213.272 102.591C213.263 102.591 213.254 102.591 213.245 102.592C213.232 102.592 213.218 102.592 213.206 102.592C213.195 102.592 213.185 102.593 213.175 102.593C213.158 102.593 213.142 102.593 213.125 102.594C213.12 102.594 213.114 102.594 213.108 102.594C213.085 102.594 213.062 102.594 213.039 102.595C213.033 102.595 213.029 102.595 213.023 102.595C213.005 102.595 212.988 102.595 212.97 102.595C212.962 102.595 212.956 102.595 212.948 102.596C212.931 102.596 212.915 102.596 212.899 102.596C212.891 102.596 212.884 102.596 212.876 102.596C212.854 102.596 212.832 102.597 212.809 102.597C212.803 102.597 212.798 102.597 212.793 102.597C212.776 102.597 212.759 102.597 212.742 102.597C212.733 102.597 212.723 102.597 212.714 102.597C212.699 102.597 212.685 102.597 212.669 102.597C212.66 102.597 212.654 102.597 212.645 102.597H212.508C212.5 102.597 212.493 102.597 212.485 102.597C212.469 102.597 212.453 102.597 212.438 102.597C212.429 102.597 212.421 102.597 212.412 102.597C212.396 102.597 212.379 102.597 212.363 102.597C212.356 102.597 212.349 102.597 212.343 102.597C212.32 102.596 212.298 102.596 212.275 102.596C212.269 102.596 212.264 102.596 212.258 102.596C212.24 102.596 212.221 102.596 212.203 102.595C212.197 102.595 212.189 102.595 212.183 102.595C212.166 102.595 212.149 102.595 212.132 102.595C212.125 102.595 212.118 102.595 212.111 102.595L212.055 102.594C212.05 102.594 212.044 102.594 212.04 102.594C212.017 102.593 211.994 102.593 211.972 102.593C211.965 102.593 211.958 102.592 211.951 102.592C211.934 102.592 211.918 102.592 211.901 102.591C211.894 102.591 211.887 102.591 211.879 102.591C211.863 102.591 211.846 102.591 211.829 102.59C211.822 102.59 211.814 102.59 211.807 102.59C211.76 102.589 211.715 102.588 211.669 102.587C211.663 102.587 211.658 102.587 211.653 102.586C211.633 102.586 211.615 102.586 211.596 102.585L211.58 102.585C211.561 102.584 211.541 102.584 211.523 102.583C211.518 102.583 211.513 102.583 211.508 102.583C211.484 102.582 211.46 102.582 211.437 102.581H211.435C211.412 102.58 211.39 102.58 211.368 102.579C211.361 102.579 211.355 102.578 211.347 102.578C211.331 102.578 211.314 102.577 211.297 102.577C211.29 102.576 211.284 102.576 211.277 102.576C211.258 102.575 211.239 102.575 211.22 102.574C211.216 102.574 211.211 102.574 211.207 102.574C211.161 102.572 211.113 102.57 211.067 102.569L211.049 102.568C211.031 102.567 211.011 102.566 210.993 102.566C210.988 102.565 210.983 102.565 210.979 102.565C210.931 102.563 210.884 102.561 210.837 102.559C210.834 102.559 210.83 102.559 210.826 102.559C210.807 102.558 210.787 102.557 210.768 102.556C210.761 102.556 210.755 102.555 210.749 102.555C210.728 102.554 210.708 102.553 210.688 102.552L210.682 102.552C210.634 102.55 210.585 102.547 210.537 102.545C210.534 102.544 210.531 102.544 210.528 102.544C210.507 102.543 210.487 102.542 210.466 102.541C210.462 102.541 210.458 102.54 210.454 102.54C210.431 102.539 210.408 102.538 210.385 102.536H210.384C210.336 102.534 210.287 102.531 210.238 102.528C210.236 102.528 210.233 102.528 210.232 102.528C210.211 102.526 210.19 102.525 210.168 102.524C210.164 102.524 210.159 102.523 210.155 102.523C210.083 102.518 210.012 102.514 209.94 102.509L209.935 102.509C209.911 102.507 209.889 102.506 209.865 102.504L209.863 102.504C209.79 102.499 209.716 102.493 209.643 102.488L209.639 102.488C208.502 102.402 207.392 102.269 206.309 102.088Z" fill="#A76348"/>
<path d="M231.677 135.101C230.756 135.325 229.812 135.442 228.864 135.449C228.37 135.451 227.878 135.412 227.391 135.334C226.068 147.291 220.11 166.707 195.327 166.707C194.572 166.707 193.794 166.689 193.005 166.652C193.046 167.988 193.105 169.191 193.187 170.18C193.234 170.927 193.341 171.67 193.506 172.401C193.509 172.412 193.512 172.424 193.515 172.435C193.518 172.443 193.52 172.45 193.523 172.459C193.738 173.071 195.398 173.796 197.959 174.452L197.961 174.452C197.963 174.453 197.964 174.453 197.966 174.454C201.959 175.474 208.139 176.328 214.462 176.328C218.726 176.328 223.056 175.939 226.82 174.951C228.419 174.546 229.972 173.978 231.455 173.257C231.455 173.257 231.516 172.704 231.626 171.747C232.151 167.142 233.777 153.196 234.93 146.545C235.061 145.79 235.181 144.893 235.291 143.885L232.849 143.379C232.111 143.225 231.464 142.785 231.052 142.157C230.639 141.528 230.494 140.762 230.649 140.026L231.677 135.101ZM225.14 108.692C225.331 110.122 225.535 111.905 225.67 113.798C226.499 112.554 227.335 111.319 228.095 110.11L228.101 110.105C228.108 110.095 228.114 110.085 228.12 110.075C227.15 109.612 226.146 109.145 225.14 108.692ZM199.335 106.495C199.186 106.537 199.036 106.58 198.885 106.624C197.633 106.99 196.347 107.4 195.115 107.854C196.59 110.257 198.373 112.459 200.419 114.403C199.9 111.45 199.549 108.542 199.335 106.495Z" fill="#DAD2C8"/>
<path d="M190.043 133.815C189.251 132.28 188.894 130.683 188.638 129.071C188.427 127.454 188.322 125.821 188.654 124.126C189.449 125.661 189.806 127.257 190.059 128.869C190.266 130.488 190.372 132.12 190.043 133.815Z" fill="#995942"/>
<path d="M185.621 105.653C183.533 106.213 181.348 106.316 179.215 105.958C177.181 105.633 175.227 104.925 173.459 103.873L173.45 103.858L172.18 108.11C170.234 108.242 168.768 108.135 167.672 107.917C164.979 107.396 164.399 106.208 164.399 106.208L179.979 63.3335L181.204 59.9433L181.51 59.0957L190.771 60.1366L185.621 105.653Z" fill="#CCC0AE"/>
<path d="M171.959 108.124C171.465 108.154 171.001 108.169 170.569 108.168C171.002 108.168 171.465 108.153 171.959 108.124Z" fill="#BFBFBF"/>
<path d="M182.883 83.1374L179.215 105.958C180.046 106.095 180.887 106.164 181.729 106.166H181.763C182.967 106.165 184.168 106.018 185.337 105.727C185.355 105.722 185.375 105.718 185.393 105.713C185.443 105.7 185.492 105.688 185.541 105.675C185.568 105.667 185.595 105.66 185.622 105.653L187.738 86.9479C185.482 86.626 183.896 85.1288 182.883 83.1374ZM185.735 65.3932L185.14 69.0973C185.393 69.0215 185.654 68.9788 185.918 68.9704C185.959 68.9688 186.001 68.9679 186.043 68.9679C186.226 68.9681 186.409 68.9837 186.59 69.0144C186.272 67.837 185.986 66.5998 185.735 65.3932ZM181.004 60.4971L179.979 63.3334C180.288 63.3161 180.63 63.3042 181.003 63.3042C181.269 63.3042 181.55 63.3103 181.846 63.3248L167.672 107.917C167.687 107.92 167.702 107.923 167.717 107.926C168.648 108.096 169.593 108.177 170.54 108.168H170.569C171.002 108.168 171.465 108.153 171.959 108.124C171.97 108.124 171.981 108.123 171.993 108.122C172.026 108.12 172.06 108.118 172.094 108.116C172.122 108.114 172.151 108.112 172.18 108.11L173.45 103.858L183.454 63.4843C184.119 63.571 184.778 63.6934 185.429 63.851C185.355 63.4626 185.286 63.0834 185.22 62.7133C185.177 62.7827 185.156 62.8191 185.156 62.8191L185.156 62.8174L185.155 62.8181C185.049 62.3977 184.935 61.9488 184.808 61.4758C183.674 61.4228 182.264 61.1885 181.004 60.4971Z" fill="#C2B4A0"/>
<path d="M185.218 61.488C183.51 61.4683 180.948 61.067 179.314 59.1242C178.435 58.1098 177.823 56.6539 177.746 54.5938C177.622 51.3402 178.992 49.8704 180.255 49.2009C180.878 48.8736 181.565 48.6838 182.269 48.6445C182.269 48.6445 187.31 49.4835 187.619 50.189C187.929 50.8825 187.826 61.5117 185.218 61.488Z" fill="#CCC0AE"/>
<path d="M182.239 48.6455C181.546 48.6905 180.87 48.8797 180.255 49.201C180.97 51.0083 181.397 52.9163 181.518 54.8553C181.669 57.2392 180.438 58.4833 179.314 59.1242C180.821 60.9168 183.119 61.3971 184.808 61.4761C184.785 61.3933 184.763 61.3096 184.74 61.2251L184.742 61.2211C184.272 59.4675 183.678 57.4196 183.067 55.377C182.414 53.1952 182.134 50.9197 182.239 48.6455Z" fill="#C2B4A0"/>
<path d="M243.401 44.4549C243.049 44.9101 242.648 45.3264 242.207 45.6966C241.334 46.4437 238.722 46.9814 235.055 47.3609C231.862 47.6928 227.866 47.9063 223.516 48.033C223.27 48.0407 223.028 48.0449 222.779 48.0526H222.775C215.699 48.2465 207.777 48.2186 200.879 48.1199C197.818 48.0805 194.956 48.0211 192.465 47.9658C186.848 47.8354 183.099 47.6969 183.099 47.6969C182.853 47.2853 182.642 46.8542 182.468 46.4081C181.765 44.6725 180.937 41.3952 182.676 37.9122C182.049 36.422 181.641 34.8495 181.466 33.2433C181.198 30.6969 181.545 27.5898 183.949 25.2375C185.858 23.3716 187.668 22.9208 189.192 23.095C191.691 23.3757 193.41 25.3326 193.516 25.451C193.134 24.1943 192.992 22.8776 193.096 21.5688C193.263 19.782 194.026 17.7973 196.283 16.5638C197.277 16.022 198.146 15.8204 198.902 15.8441C201.873 15.9273 203.086 19.4579 203.086 19.4579C203.098 17.9034 203.439 16.3688 204.088 14.9548V14.9507C205.044 12.9505 206.904 10.9936 210.529 10.7837C213.927 10.5863 216.107 12.2271 217.483 14.1168C219.207 16.4806 219.668 19.2325 219.668 19.2325C220.088 18.7046 220.555 18.215 221.063 17.7694C222.288 16.6863 224.106 15.5991 225.621 16.7892C226.163 17.2092 226.597 17.7512 226.887 18.3706C227.7 20.114 227.156 21.9799 227.114 22.1184C227.645 21.4842 228.333 20.9991 229.11 20.7112C230.176 20.3394 231.612 20.3513 233.275 21.6795C233.889 22.1486 234.417 22.7196 234.836 23.3675C236.117 25.4628 234.765 27.0165 234.765 27.0165C235.3 26.9349 235.845 26.9402 236.378 27.0324C237.761 27.2615 239.697 28.1234 240.77 31.0097C240.827 31.156 240.88 31.306 240.929 31.4641C242.63 36.8012 242.207 38.8015 242.207 38.8015C242.207 38.8015 245.937 41.1103 243.401 44.4549Z" fill="#262E35"/>
<path d="M188.589 23.0605C187.2 23.0605 185.612 23.6122 183.95 25.2375C181.977 27.1672 181.389 29.6047 181.39 31.8239C181.39 32.2981 181.416 32.7718 181.466 33.2433C192.979 31.729 191.43 26.4079 189.192 23.095C188.992 23.0721 188.791 23.0606 188.589 23.0605Z" fill="#424B53"/>
<path d="M198.783 15.8418C198.055 15.8418 197.225 16.0497 196.283 16.5634C194.026 17.7969 193.263 19.7816 193.096 21.5684C194.484 22.0422 196.181 22.4931 197.614 22.4931C199.17 22.4931 200.414 21.9606 200.607 20.3467C200.818 18.5797 200.006 17.0577 198.902 15.8437C198.863 15.8425 198.823 15.8418 198.783 15.8418Z" fill="#424B53"/>
<path d="M211.079 10.7676C210.899 10.7676 210.716 10.773 210.529 10.7837C206.904 10.9936 205.044 12.9505 204.088 14.9507V14.9548C206.087 16.9789 209.217 19.3431 213.22 19.7541C213.421 19.7751 213.623 19.7859 213.825 19.7863C216.973 19.7863 217.63 16.9706 217.483 14.1168C216.183 12.3311 214.165 10.7676 211.079 10.7676Z" fill="#424B53"/>
<path d="M224.155 16.2705C223.038 16.2705 221.909 17.0207 221.063 17.7689C221.396 19.9 222.068 22.122 223.425 22.4223C223.504 22.4397 223.584 22.4484 223.665 22.4485C224.876 22.4485 226.015 20.4771 226.887 18.3701C226.597 17.7506 226.163 17.2087 225.621 16.7887C225.207 16.4525 224.689 16.2694 224.155 16.2705Z" fill="#424B53"/>
<path d="M230.328 20.501C229.913 20.5017 229.501 20.5726 229.11 20.7106C228.494 22.4657 228.176 24.4226 229.378 25.2369C229.655 25.4152 229.979 25.5051 230.309 25.4946C231.56 25.4946 233.285 24.4956 234.836 23.3669C234.417 22.719 233.889 22.148 233.275 21.6789C232.181 20.8051 231.185 20.501 230.328 20.501Z" fill="#424B53"/>
<path d="M236.378 27.0322C236.731 28.9277 237.579 32.4063 239.052 32.4063C239.551 32.4063 240.123 32.0064 240.77 31.0095C239.697 28.1232 237.761 27.2613 236.378 27.0322Z" fill="#424B53"/>
<path d="M184.447 57.7044C184.447 57.7044 185.581 66.8961 187.565 72.0849C189.55 77.2739 236.891 72.5299 236.891 72.5299C236.891 72.5299 240.576 65.2653 241.285 57.1114C241.994 48.9575 222.009 37.2457 210.527 36.9494C199.047 36.6527 184.447 57.7044 184.447 57.7044Z" fill="#262E35"/>
<path d="M233.727 86.372C234.014 86.4887 234.308 86.5885 234.606 86.671C244.832 89.54 245.845 73.4673 242.186 70.1274C241.293 69.3359 240.449 68.993 239.667 68.9702C237.18 68.8728 235.368 71.7194 235.368 71.7194C234.563 72.6326 233.818 73.5975 233.14 74.608L233.123 74.6254C230.689 78.2213 227.853 84.1513 233.727 86.372Z" fill="#B7765A"/>
<path d="M240.781 74.3425C240.422 74.3555 240.07 74.4458 239.749 74.607C239.428 74.7683 239.145 74.9968 238.921 75.2769C238.286 76.0599 237.759 76.9241 237.353 77.8464C236.484 79.6367 235.787 81.5492 234.846 83.4614C235.369 84.3402 235.754 85.2942 235.985 86.2897C239.975 85.1749 242.059 79.0422 241.563 76.0598C241.413 75.1458 241.125 74.6202 240.781 74.3425ZM239.542 68.9678C239.129 68.9702 238.72 69.0462 238.334 69.1922C236.559 69.8488 235.368 71.7194 235.368 71.7194C235.368 71.7194 235.296 71.7985 235.169 71.9457L233.785 81.9445C234.105 82.3354 234.4 82.7455 234.67 83.1723C234.666 82.2459 234.762 81.3218 234.957 80.4159C235.181 79.3087 235.535 78.2318 236.014 77.2078C236.523 76.1905 237.151 75.1655 238.154 74.4106C238.231 74.3522 238.312 74.2959 238.396 74.243C238.522 72.4272 238.952 70.6452 239.667 68.9703C239.625 68.9686 239.583 68.9678 239.542 68.9678Z" fill="#A76348"/>
<path d="M234.696 83.761C234.628 82.6394 234.715 81.5137 234.957 80.416C235.18 79.3088 235.535 78.2318 236.014 77.2079C236.523 76.1905 237.151 75.1655 238.154 74.4107C238.662 74.0108 239.285 73.7818 239.932 73.7568C240.546 73.7601 241.135 74 241.575 74.4261C240.417 74.1564 239.539 74.5523 238.921 75.277C238.286 76.06 237.759 76.9242 237.353 77.8465C236.438 79.7302 235.714 81.7492 234.696 83.761Z" fill="#995942"/>
<path d="M191.857 86.372C191.57 86.4886 191.277 86.5885 190.979 86.671C180.752 89.54 179.74 73.4673 183.398 70.1274C184.292 69.3359 185.136 68.993 185.918 68.9702C188.405 68.8728 190.216 71.7194 190.216 71.7194C191.022 72.6325 191.766 73.5975 192.445 74.608L192.462 74.6254C194.895 78.2213 197.732 84.1513 191.857 86.372Z" fill="#B7765A"/>
<path d="M184.803 74.3424C184.459 74.6202 184.171 75.1458 184.021 76.0598C183.542 78.9402 185.47 84.7593 189.197 86.1582C189.472 85.0603 189.928 84.0157 190.548 83.0672C189.701 81.2867 189.041 79.5136 188.231 77.8464C187.826 76.9241 187.299 76.0599 186.664 75.2769C186.439 74.9968 186.157 74.7683 185.836 74.607C185.515 74.4457 185.162 74.3554 184.803 74.3424ZM186.042 68.9678C186.001 68.9678 185.959 68.9686 185.918 68.9703C186.633 70.6452 187.063 72.4273 187.189 74.2432C187.273 74.2962 187.353 74.352 187.431 74.4106C188.433 75.1655 189.061 76.1905 189.571 77.2078C190.049 78.2318 190.404 79.3087 190.628 80.4159C190.775 81.1167 190.868 81.8278 190.905 82.5428C190.995 82.4176 191.088 82.2933 191.184 82.1699L190.435 71.9678C190.295 71.8064 190.216 71.7194 190.216 71.7194C190.216 71.7194 188.725 69.3753 186.59 69.0142C186.409 68.9835 186.226 68.968 186.042 68.9678Z" fill="#A76348"/>
<path d="M190.888 83.761C189.87 81.7492 189.146 79.7302 188.231 77.8465C187.826 76.9242 187.299 76.06 186.664 75.277C186.046 74.5523 185.167 74.1564 184.01 74.4261C184.45 73.9998 185.039 73.76 185.653 73.7568C186.3 73.7818 186.922 74.0107 187.431 74.4107C188.433 75.1655 189.061 76.1905 189.571 77.2079C190.049 78.2319 190.404 79.3088 190.628 80.416C190.869 81.5137 190.957 82.6394 190.888 83.761Z" fill="#995942"/>
<path d="M236.208 88.2667C236.208 90.0849 235.649 91.8246 234.628 93.4258C231.215 98.7901 222.628 102.597 212.577 102.597C202.296 102.597 193.542 98.6164 190.296 93.054C189.422 91.6077 188.955 89.9544 188.942 88.2667C188.942 86.0844 189.748 84.0206 191.184 82.1703L190.254 69.5115L190.239 69.2783C190.364 66.5506 191.15 58.3272 196.117 52.2669C196.517 51.7763 196.948 51.2981 197.405 50.8396C200.633 47.6098 205.316 45.2812 212.105 45.2812C232.088 45.2812 235.188 64.8465 235.607 68.7799L233.785 81.9449C235.339 83.8504 236.208 85.997 236.208 88.2667Z" fill="#B7765A"/>
<path d="M185.156 62.8189C185.156 62.8189 208.082 23.9585 240.399 62.6519C240.399 62.6519 241.32 60.8849 242.479 58.2934C246.138 50.1199 243.886 40.3663 237.038 34.8752C226.246 26.2221 207.902 17.5671 188.455 35.1779C182.959 40.1541 180.895 48.1215 183.067 55.3765C183.876 58.0794 184.653 60.7916 185.156 62.8189Z" fill="#CCC0AE"/>
<path d="M184.174 40.929C184.171 40.934 184.169 40.9391 184.166 40.944L184.174 40.929ZM185.488 38.6237C185.017 39.3291 184.595 40.065 184.223 40.8265C184.595 40.0651 185.018 39.3292 185.488 38.6237ZM185.536 38.5525C185.52 38.5746 185.505 38.5973 185.49 38.6195C185.506 38.5969 185.52 38.5749 185.536 38.5525ZM185.576 38.4924C185.568 38.5036 185.561 38.5147 185.553 38.526C185.561 38.5146 185.568 38.5038 185.576 38.4924ZM185.616 38.4342C185.613 38.438 185.611 38.4418 185.608 38.4456C185.611 38.4416 185.613 38.4384 185.616 38.4342ZM213.484 24.9678C222.901 25.3682 231.11 30.1221 237.038 34.8754C239.141 36.5671 240.856 38.6866 242.07 41.092C240.857 38.6868 239.142 36.5673 237.04 34.8754C231.109 30.1211 222.903 25.3669 213.484 24.9678Z" fill="#1E242A"/>
<path d="M226.396 49.9961L226.398 49.9985C228.371 51.2176 230.246 52.5847 232.01 54.0879C230.246 52.5837 228.369 51.2158 226.396 49.9961Z" fill="#1E242A"/>
<path d="M243.18 56.5C242.977 57.1049 242.744 57.7029 242.48 58.2939C242.377 58.524 242.276 58.7475 242.177 58.9642C242.275 58.7484 242.376 58.5255 242.479 58.2958C242.744 57.7044 242.977 57.1058 243.18 56.5Z" fill="#BFBFBF"/>
<path d="M184.808 61.4756C184.935 61.9486 185.049 62.3975 185.155 62.818L185.156 62.8172C185.051 62.3974 184.936 61.9481 184.81 61.4757L184.808 61.4756Z" fill="#B6A791"/>
<path d="M184.742 61.2207L184.74 61.2247C184.763 61.3088 184.785 61.3922 184.807 61.4748L184.81 61.4749C184.787 61.3909 184.765 61.3061 184.742 61.2207Z" fill="#B6A791"/>
<path d="M241.001 61.4512C240.636 62.196 240.409 62.6326 240.399 62.6519L240.4 62.6525C240.4 62.6525 240.628 62.2131 241.001 61.4512Z" fill="#BFBFBF"/>
<path d="M212.209 24.9404C204.824 24.941 196.738 27.6774 188.455 35.1796C187.384 36.15 186.431 37.2422 185.616 38.434C185.613 38.4382 185.611 38.4414 185.608 38.4454C185.597 38.461 185.587 38.4764 185.576 38.4921C185.568 38.5035 185.561 38.5143 185.553 38.5257C185.547 38.5345 185.541 38.5433 185.535 38.5522C185.52 38.5747 185.505 38.5967 185.49 38.6192L185.488 38.6235C185.017 39.329 184.595 40.0648 184.223 40.8262C184.22 40.8338 184.216 40.8411 184.212 40.8486C184.206 40.8625 184.199 40.8764 184.192 40.8903C184.186 40.9031 184.18 40.9159 184.173 40.9288L184.166 40.9437C183.904 41.4897 183.668 42.0472 183.458 42.6162C187.309 38.6205 197.372 29.6938 210.444 29.6952C216.825 29.6959 223.924 31.8237 231.363 37.6902L228.955 42.8809C228.955 42.8809 221.779 38.109 211.279 38.109C204.321 38.109 195.903 40.2051 187.147 47.1741C187.481 46.9765 198.295 40.6565 210.146 40.6565C214.643 40.6565 219.289 41.5667 223.569 44.0669L220.023 45.3992C220.023 45.3992 216.896 44.4512 212.299 44.4512C204.624 44.4512 192.856 47.0971 184.742 61.2205C184.765 61.3063 184.788 61.3913 184.81 61.4756C184.935 61.948 185.051 62.3973 185.155 62.8172C185.217 62.713 191.031 52.9206 200.894 48.1086C203.78 46.3771 207.447 45.2808 212.105 45.2808C218.392 45.2808 223.008 47.2178 226.395 49.9953C228.369 51.2149 230.245 52.5828 232.01 54.087C234.725 56.3832 237.526 59.2112 240.4 62.6519C240.409 62.6319 240.636 62.1954 241.001 61.4505C241.31 60.8202 241.718 59.9691 242.177 58.9637C242.275 58.7472 242.376 58.5238 242.479 58.2934C242.744 57.7027 242.977 57.1048 243.18 56.4995C244.022 53.9854 244.357 51.3307 244.167 48.6875C243.977 46.0442 243.265 43.4643 242.072 41.0953L242.071 41.0936L242.071 41.0923C240.857 38.6866 239.141 36.567 237.038 34.8751C231.11 30.1219 222.901 25.3679 213.484 24.9675C213.062 24.9496 212.637 24.9405 212.209 24.9404Z" fill="#C2B4A0"/>
<path d="M197.146 64.3067C197.248 64.8668 198.039 65.3765 198.809 65.2407L199.065 65.1791C199.906 64.8718 205.591 62.423 205.844 62.1276C206.096 61.8327 205.993 61.2562 205.534 60.8996C205.534 60.8996 202.582 58.5816 200.827 57.6685C200.666 57.5868 200.491 57.5378 200.311 57.5243C200.131 57.5108 199.95 57.5332 199.779 57.59C199.608 57.6468 199.449 57.7369 199.313 57.8552C199.178 57.9735 199.067 58.1175 198.987 58.2788C198.472 59.3517 198.051 60.4667 197.727 61.6115C197.344 62.9016 197.097 64.0401 197.146 64.3067Z" fill="#2A323F"/>
<path d="M205.974 61.8096C204.638 62.5553 203.256 63.2898 201.883 63.9957C203.691 63.209 205.696 62.2999 205.844 62.1273C205.918 62.0369 205.964 61.9261 205.974 61.8096Z" fill="#181D27"/>
<path d="M219.489 62.7437C219.19 63.3441 219.568 64.428 220.381 64.894L220.664 65.0343C221.663 65.3956 228.685 67.4913 229.128 67.4109C229.572 67.33 229.881 66.7132 229.704 66.0279C229.704 66.0279 228.585 61.5939 227.592 59.3919C227.508 59.1952 227.386 59.017 227.233 58.8677C227.079 58.7184 226.897 58.601 226.698 58.5221C226.498 58.4433 226.285 58.4047 226.071 58.4085C225.856 58.4123 225.644 58.4584 225.448 58.5443C224.407 59.0138 223.069 59.8578 221.928 60.6795C220.662 61.5861 219.631 62.4571 219.489 62.7437Z" fill="#2A323F"/>
<path d="M226.097 58.4043C225.873 58.4044 225.652 58.4522 225.448 58.5443C224.407 59.0138 223.069 59.8578 221.928 60.6795C222.562 60.4662 223.226 60.3494 223.895 60.3333C224.614 60.3333 225.323 60.5108 225.831 61.0438C227.074 62.3447 226.462 65.0743 223.109 65.0743C222.191 65.0554 221.282 64.8989 220.411 64.6101L220.381 64.894L220.664 65.0343C221.644 65.3888 228.422 67.4131 229.096 67.4131C229.107 67.4133 229.118 67.4126 229.128 67.4109C229.485 67.3458 229.755 66.9337 229.755 66.4181C229.754 66.2864 229.737 66.1553 229.704 66.0279C229.704 66.0279 228.585 61.5939 227.592 59.3919C227.465 59.1011 227.257 58.8531 226.991 58.6779C226.726 58.5026 226.415 58.4076 226.097 58.4043Z" fill="#181D27"/>
<path d="M202.15 66.9561C202.093 66.9561 202.035 66.9587 201.978 66.9638C200.215 67.1229 198.997 69.7079 199.259 72.737C199.511 75.6678 201.055 77.9409 202.752 77.9409C202.809 77.9409 202.866 77.9383 202.923 77.9332C204.686 77.774 205.903 75.1895 205.643 72.16C205.39 69.2291 203.846 66.9558 202.15 66.9561Z" fill="#A76348"/>
<path d="M200.202 74.0076C200.371 75.9742 201.462 77.4824 202.638 77.3761C203.814 77.2698 204.63 75.5894 204.461 73.6228C204.291 71.6561 203.201 70.148 202.025 70.2543C200.849 70.3605 200.032 72.0411 200.202 74.0076Z" fill="#2A323F"/>
<path d="M200.974 72.5803C201.018 73.0879 201.331 73.4741 201.674 73.4431C202.016 73.4122 202.259 72.9756 202.215 72.4681C202.171 71.9605 201.858 71.5744 201.515 71.6052C201.173 71.6363 200.93 72.0728 200.974 72.5803Z" fill="white"/>
<path d="M201.998 73.8448C201.998 73.9487 202.039 74.0485 202.112 74.1227C202.185 74.1969 202.284 74.2394 202.388 74.2411C202.491 74.2206 202.581 74.161 202.64 74.0751C202.7 73.9892 202.723 73.8836 202.705 73.781C202.705 73.6771 202.664 73.5773 202.591 73.5031C202.518 73.4289 202.419 73.3864 202.315 73.3848C202.212 73.4053 202.122 73.4648 202.063 73.5507C202.003 73.6367 201.98 73.7422 201.998 73.8448Z" fill="white"/>
<path d="M224.141 67.6855C222.555 67.6858 220.89 69.6099 220.265 72.2917C219.576 75.2466 220.41 78.0027 222.128 78.4477C222.285 78.4883 222.447 78.5088 222.609 78.5086C224.195 78.5086 225.86 76.5844 226.485 73.9025C227.174 70.9476 226.34 68.1915 224.622 67.7466C224.465 67.706 224.303 67.6854 224.141 67.6855Z" fill="#A76348"/>
<path d="M220.766 73.8121C220.319 75.7305 220.885 77.5263 222.031 77.823C223.177 78.1198 224.468 76.8052 224.915 74.8867C225.362 72.9683 224.796 71.1726 223.65 70.8758C222.504 70.579 221.213 71.8937 220.766 73.8121Z" fill="#2A323F"/>
<path d="M221.937 72.7223C221.822 73.2173 221.999 73.6888 222.333 73.7753C222.667 73.8618 223.031 73.5307 223.147 73.0355C223.262 72.5404 223.085 72.069 222.751 71.9825C222.417 71.896 222.053 72.2272 221.937 72.7223Z" fill="white"/>
<path d="M222.516 74.2656C222.484 74.3655 222.492 74.4737 222.538 74.568C222.584 74.6623 222.664 74.7354 222.763 74.7724C222.813 74.7802 222.865 74.7778 222.915 74.7655C222.965 74.7531 223.012 74.731 223.053 74.7004C223.094 74.6698 223.128 74.6314 223.154 74.5873C223.18 74.5433 223.197 74.4945 223.204 74.4439C223.236 74.344 223.228 74.2358 223.182 74.1415C223.136 74.0473 223.056 73.9741 222.957 73.9371C222.907 73.9293 222.855 73.9317 222.805 73.944C222.755 73.9564 222.708 73.9785 222.667 74.0091C222.626 74.0397 222.592 74.0781 222.566 74.1222C222.54 74.1662 222.523 74.215 222.516 74.2656Z" fill="white"/>
<path d="M231.486 96.8614C228.081 99.6123 223.08 101.597 217.318 102.309C223.08 101.597 228.08 99.6136 231.486 96.863V96.8617M193.377 96.6244C193.382 96.629 193.388 96.6339 193.393 96.6384L193.377 96.6244ZM189.12 90.0292C189.612 92.4648 191.113 94.7108 193.36 96.6106C192.144 95.6067 191.107 94.404 190.296 93.0538C189.739 92.1171 189.342 91.0951 189.12 90.0292ZM236.2 88.6533C236.114 90.2777 235.615 91.8536 234.749 93.2325L234.751 93.2331C235.616 91.8537 236.115 90.2777 236.2 88.6533Z" fill="#A5CDA9"/>
<path d="M212.669 102.597C212.661 102.597 212.653 102.597 212.645 102.597C212.654 102.597 212.66 102.597 212.669 102.597ZM212.485 102.597C212.493 102.597 212.5 102.597 212.508 102.597C212.501 102.597 212.492 102.597 212.485 102.597ZM212.742 102.597C212.733 102.597 212.724 102.597 212.714 102.597C212.723 102.597 212.733 102.597 212.742 102.597ZM212.899 102.596C212.891 102.596 212.884 102.596 212.876 102.596C212.884 102.596 212.891 102.596 212.899 102.596ZM212.97 102.595C212.962 102.595 212.955 102.595 212.948 102.595C212.956 102.595 212.962 102.595 212.97 102.595ZM212.183 102.595C212.189 102.595 212.197 102.595 212.203 102.595C212.196 102.595 212.19 102.595 212.183 102.595ZM212.111 102.594C212.118 102.594 212.125 102.594 212.132 102.595C212.125 102.594 212.118 102.594 212.111 102.594ZM212.04 102.594C212.044 102.594 212.05 102.594 212.055 102.594C212.05 102.594 212.045 102.594 212.04 102.594ZM213.125 102.593C213.119 102.593 213.114 102.594 213.108 102.594C213.114 102.594 213.12 102.593 213.125 102.593ZM211.951 102.592C211.958 102.592 211.965 102.592 211.972 102.592C211.965 102.592 211.958 102.592 211.951 102.592ZM213.272 102.591C213.263 102.591 213.254 102.591 213.245 102.591C213.254 102.591 213.263 102.591 213.272 102.591ZM211.879 102.591C211.887 102.591 211.894 102.591 211.901 102.591C211.893 102.591 211.887 102.591 211.879 102.591ZM211.807 102.59C211.814 102.59 211.822 102.59 211.829 102.59C211.822 102.59 211.814 102.59 211.807 102.59ZM213.355 102.589C213.344 102.59 213.335 102.59 213.324 102.59C213.334 102.59 213.345 102.59 213.355 102.589ZM213.437 102.588C213.426 102.588 213.415 102.588 213.404 102.589C213.415 102.588 213.426 102.588 213.437 102.588ZM211.653 102.586C211.658 102.587 211.663 102.587 211.669 102.587C211.664 102.587 211.658 102.587 211.653 102.586ZM213.505 102.586C213.494 102.587 213.482 102.587 213.471 102.587C213.482 102.587 213.494 102.587 213.505 102.586ZM211.508 102.583C211.513 102.583 211.518 102.583 211.523 102.583C211.518 102.583 211.513 102.583 211.508 102.583ZM213.677 102.582C213.654 102.582 213.63 102.583 213.607 102.584C213.631 102.583 213.654 102.582 213.677 102.582ZM211.435 102.581H211.435H211.435ZM213.74 102.58C213.725 102.581 213.711 102.581 213.696 102.581C213.71 102.581 213.726 102.58 213.74 102.58ZM211.347 102.578C211.355 102.578 211.361 102.578 211.368 102.579C211.361 102.578 211.354 102.578 211.347 102.578ZM211.277 102.576C211.284 102.576 211.29 102.576 211.297 102.576C211.29 102.576 211.284 102.576 211.277 102.576ZM213.918 102.574C213.865 102.576 213.813 102.578 213.759 102.579C213.812 102.578 213.865 102.576 213.918 102.574ZM211.207 102.573C211.211 102.574 211.216 102.574 211.22 102.574L211.207 102.573ZM213.976 102.572C213.959 102.573 213.941 102.574 213.924 102.574C213.941 102.574 213.959 102.573 213.976 102.572ZM210.979 102.565C210.983 102.565 210.988 102.565 210.993 102.565L210.979 102.565ZM210.528 102.544C210.531 102.544 210.534 102.544 210.537 102.544C210.534 102.544 210.531 102.544 210.528 102.544ZM210.454 102.54C210.458 102.54 210.462 102.541 210.466 102.541C210.462 102.541 210.458 102.54 210.454 102.54ZM210.232 102.527C210.233 102.527 210.236 102.528 210.238 102.528L210.232 102.527ZM210.155 102.523C210.159 102.523 210.164 102.523 210.168 102.524L210.155 102.523ZM217.318 102.309C216.232 102.443 215.121 102.53 213.985 102.572C215.119 102.532 216.23 102.444 217.318 102.309Z" fill="#9B693F"/>
<path d="M199.354 88.3089C196.715 90.5245 193.624 92.1435 190.296 93.0541C191.107 94.4043 192.144 95.6071 193.36 96.6109C193.366 96.6155 193.371 96.6201 193.377 96.6248L193.393 96.6387C193.405 96.6484 193.415 96.6573 193.427 96.6671L193.428 96.6678C197.18 99.8068 202.981 101.987 209.639 102.488L209.643 102.488C209.716 102.494 209.789 102.499 209.863 102.504L209.864 102.504C209.888 102.506 209.912 102.507 209.935 102.509L209.94 102.509C210.012 102.514 210.083 102.519 210.155 102.523L210.168 102.524C210.19 102.525 210.21 102.526 210.232 102.528L210.238 102.528C210.287 102.531 210.335 102.534 210.384 102.537H210.385C210.408 102.538 210.431 102.539 210.454 102.54C210.458 102.541 210.463 102.541 210.466 102.541C210.487 102.542 210.508 102.543 210.528 102.544C210.531 102.544 210.534 102.545 210.537 102.545C210.585 102.547 210.634 102.55 210.683 102.552L210.688 102.552C210.708 102.553 210.729 102.554 210.749 102.555C210.755 102.555 210.761 102.556 210.768 102.556C210.787 102.557 210.807 102.558 210.827 102.559C210.83 102.559 210.834 102.559 210.837 102.559C210.884 102.561 210.931 102.563 210.979 102.565L210.993 102.566L211.049 102.568L211.067 102.569C211.114 102.57 211.16 102.572 211.207 102.574L211.22 102.574C211.239 102.575 211.258 102.575 211.277 102.576C211.284 102.576 211.29 102.577 211.297 102.577C211.314 102.577 211.331 102.578 211.348 102.578C211.354 102.579 211.361 102.579 211.368 102.579C211.39 102.58 211.413 102.58 211.435 102.581H211.437C211.46 102.582 211.484 102.582 211.508 102.583C211.513 102.583 211.518 102.583 211.523 102.584C211.542 102.584 211.561 102.584 211.58 102.585L211.596 102.585C211.615 102.586 211.634 102.586 211.653 102.587C211.658 102.587 211.664 102.587 211.669 102.587C211.715 102.588 211.761 102.589 211.807 102.59C211.814 102.59 211.822 102.59 211.829 102.59C211.846 102.591 211.863 102.591 211.879 102.591C211.887 102.591 211.893 102.592 211.901 102.592C211.918 102.592 211.935 102.592 211.951 102.593C211.958 102.593 211.965 102.593 211.972 102.593C211.995 102.593 212.017 102.594 212.04 102.594C212.045 102.594 212.05 102.594 212.055 102.594C212.073 102.594 212.093 102.594 212.111 102.595C212.118 102.595 212.125 102.595 212.132 102.595C212.149 102.595 212.165 102.595 212.183 102.596C212.19 102.596 212.196 102.596 212.203 102.596C212.221 102.596 212.24 102.596 212.259 102.596C212.264 102.596 212.269 102.596 212.275 102.596C212.298 102.596 212.32 102.597 212.343 102.597C212.349 102.597 212.357 102.597 212.363 102.597C212.38 102.597 212.395 102.597 212.412 102.597C212.421 102.597 212.429 102.597 212.438 102.597C212.453 102.597 212.47 102.597 212.485 102.597C212.492 102.597 212.501 102.597 212.508 102.597H212.645C212.653 102.597 212.661 102.597 212.669 102.597C212.684 102.597 212.699 102.597 212.714 102.597C212.724 102.597 212.733 102.597 212.742 102.597C212.759 102.597 212.776 102.597 212.793 102.597C212.798 102.597 212.804 102.597 212.809 102.597C212.831 102.597 212.854 102.596 212.876 102.596C212.884 102.596 212.891 102.596 212.899 102.596L212.948 102.596C212.955 102.596 212.963 102.596 212.97 102.596C212.987 102.595 213.006 102.595 213.023 102.595C213.029 102.595 213.034 102.595 213.039 102.595C213.062 102.594 213.085 102.594 213.108 102.594C213.114 102.594 213.119 102.594 213.125 102.594C213.142 102.593 213.158 102.593 213.175 102.593C213.185 102.593 213.195 102.593 213.206 102.592C213.219 102.592 213.232 102.592 213.245 102.592C213.254 102.592 213.263 102.591 213.272 102.591C213.289 102.591 213.306 102.591 213.324 102.59C213.335 102.59 213.344 102.59 213.356 102.59C213.372 102.589 213.388 102.589 213.404 102.589C213.415 102.589 213.426 102.588 213.437 102.588C213.448 102.588 213.46 102.588 213.471 102.587C213.482 102.587 213.494 102.587 213.505 102.587C213.518 102.586 213.53 102.586 213.543 102.586L213.573 102.585C213.584 102.585 213.596 102.584 213.607 102.584C213.63 102.584 213.654 102.583 213.677 102.582C213.684 102.582 213.689 102.582 213.696 102.582C213.711 102.581 213.725 102.581 213.74 102.58C213.747 102.58 213.752 102.58 213.759 102.58C213.813 102.578 213.865 102.577 213.918 102.575L213.924 102.574C213.941 102.574 213.959 102.573 213.976 102.573C213.979 102.573 213.982 102.572 213.985 102.572C215.119 102.532 216.23 102.444 217.318 102.309C223.08 101.597 228.081 99.6127 231.486 96.8617C231.488 96.631 231.492 96.4078 231.499 96.1925C226.938 99.6195 220.741 101.976 212.759 102.179C212.519 102.185 212.282 102.188 212.046 102.188C199.395 102.188 191.713 93.5086 191.713 93.5086C195.028 96.3517 203.098 99.3242 210.74 99.3242C215.35 99.3242 219.804 98.2426 222.964 95.3982C224.727 93.8109 226.283 91.3618 227.542 88.4062C227.186 88.5498 226.829 88.6917 226.471 88.8318C225.463 89.1337 224.46 89.4716 223.443 89.7625C222.052 91.1994 218.198 94.5216 212.28 94.5216C212.053 94.5216 211.823 94.5166 211.59 94.5066C205.054 94.2252 202.282 90.5624 201.489 89.2349C200.763 88.9582 200.049 88.6513 199.354 88.3089ZM203.067 83.5258C202.805 84.6034 201.764 86.091 200.155 87.5976C201.342 87.9706 202.545 88.2777 203.752 88.542C203.852 88.5628 203.952 88.5832 204.053 88.6032C204.072 88.5442 204.091 88.486 204.111 88.4285C204.874 86.207 206.178 84.8783 207.32 84.0955C207.452 84.0056 207.582 83.923 207.709 83.8471C206.097 83.757 204.539 83.6465 203.067 83.5258ZM229.356 83.0371C225.896 83.6746 222.017 83.9741 218.09 84.057C220.31 85.2906 221.309 87.4461 221.729 88.7588L221.73 88.7587C223.234 88.5492 224.721 88.2214 226.235 87.9833C226.778 87.8655 227.32 87.7428 227.864 87.6213C228.453 86.1242 228.951 84.5935 229.356 83.0371Z" fill="#AC7C50"/>
<path d="M189.112 89.9904C189.113 89.9955 189.114 90.0014 189.115 90.0065C189.114 90.001 189.113 89.9958 189.112 89.9904ZM189.104 89.9504L189.106 89.9622C189.106 89.9581 189.105 89.9543 189.104 89.9504ZM236.202 88.6151C236.201 88.6257 236.201 88.6363 236.2 88.6469C236.201 88.6359 236.201 88.6262 236.202 88.6151ZM236.206 88.4876L236.205 88.5111C236.205 88.5034 236.205 88.4953 236.206 88.4876ZM188.944 88.397C188.944 88.4024 188.944 88.4071 188.944 88.4125C188.944 88.4074 188.944 88.4021 188.944 88.397ZM236.208 88.3554C236.208 88.3612 236.208 88.367 236.208 88.3727C236.208 88.3673 236.208 88.3607 236.208 88.3554ZM188.943 88.3532C188.943 88.3585 188.943 88.363 188.943 88.3684C188.943 88.3634 188.943 88.3582 188.943 88.3532ZM236.208 88.311C236.208 88.3155 236.208 88.3199 236.208 88.3246C236.208 88.3202 236.208 88.3153 236.208 88.311Z" fill="#A5CDA9"/>
<path d="M207.082 50.0146C203.312 50.0254 199.583 50.7914 196.117 52.2673C191.15 58.3276 190.364 66.551 190.239 69.2786L190.254 69.5119C192.697 68.4365 197.246 66.3789 201.883 63.9963C200.599 64.5549 199.414 65.0517 199.065 65.1794L198.809 65.241C198.724 65.2559 198.639 65.2633 198.553 65.2632C197.872 65.2632 197.237 64.805 197.146 64.307C197.097 64.0404 197.344 62.9019 197.727 61.6118C198.051 60.467 198.472 59.352 198.987 58.2791C199.101 58.0523 199.276 57.8613 199.492 57.727C199.708 57.5927 199.957 57.5204 200.212 57.518C200.426 57.5182 200.637 57.5699 200.827 57.6688C202.582 58.5819 205.534 60.8999 205.534 60.8999C205.666 60.9968 205.775 61.1221 205.852 61.2666C205.928 61.411 205.972 61.5709 205.978 61.7343C205.978 61.7597 205.977 61.785 205.974 61.8102C213.939 57.3644 220.304 52.5137 213.931 50.8833C211.693 50.3081 209.392 50.0162 207.082 50.0146Z" fill="#C1876C"/>
<path d="M200.286 59.709C199.179 59.7091 198.244 60.8293 197.727 61.6116C197.344 62.9017 197.097 64.0402 197.146 64.3068C197.237 64.8048 197.872 65.263 198.553 65.263C198.639 65.2631 198.724 65.2557 198.809 65.2408L198.687 65.0369C203.322 63.1039 202.29 59.9427 200.488 59.7214C200.421 59.7131 200.354 59.709 200.286 59.709Z" fill="#3C4552"/>
<path d="M200.212 57.5176C199.957 57.52 199.708 57.5923 199.492 57.7266C199.276 57.8609 199.101 58.0519 198.987 58.2787C198.472 59.3516 198.051 60.4666 197.727 61.6114C198.244 60.8291 199.179 59.7089 200.286 59.7088C200.354 59.7088 200.421 59.7129 200.488 59.7211C202.29 59.9425 203.322 63.1037 198.687 65.0367L198.809 65.2406L199.065 65.1789C199.414 65.0513 200.599 64.5544 201.883 63.9959C203.256 63.29 204.638 62.5555 205.974 61.8098C205.976 61.7846 205.978 61.7592 205.978 61.7339C205.972 61.5705 205.928 61.4106 205.852 61.2662C205.775 61.1217 205.666 60.9964 205.534 60.8994C205.534 60.8994 202.582 58.5814 200.827 57.6684C200.637 57.5695 200.426 57.5178 200.212 57.5176Z" fill="#262D39"/>
<path d="M189.097 89.9162C189.099 89.9276 189.102 89.9391 189.104 89.9507L189.097 89.9162ZM188.943 88.3686C188.943 88.3781 188.943 88.3876 188.943 88.3972C188.943 88.388 188.943 88.3778 188.943 88.3686ZM198.738 81.4414C195.315 81.4414 191.184 82.1701 191.184 82.1701C191.184 82.1701 196.191 82.9611 203.067 83.5256C203.215 82.9189 203.115 82.4422 202.731 82.1659C201.976 81.6226 200.445 81.4413 198.738 81.4414Z" fill="#C1876C"/>
<path d="M191.184 82.1699C191.088 82.2934 190.995 82.4177 190.905 82.5429C190.78 82.7159 190.661 82.8907 190.548 83.0672C189.512 84.6786 188.942 86.4307 188.942 88.2664C188.942 88.2807 188.942 88.2951 188.942 88.3096C188.943 88.314 188.943 88.3184 188.943 88.3227C188.943 88.3328 188.943 88.3431 188.943 88.3532C188.943 88.3582 188.943 88.3634 188.943 88.3684C188.943 88.3776 188.943 88.3878 188.943 88.3971C188.943 88.4022 188.944 88.4074 188.944 88.4125C188.944 88.4226 188.944 88.433 188.944 88.4432L188.945 88.4552C188.945 88.4681 188.945 88.4813 188.945 88.4942L188.945 88.4984C188.946 88.5282 188.947 88.5578 188.948 88.5876L188.949 88.5958L188.95 88.6324L188.95 88.6407C188.951 88.6532 188.951 88.6656 188.952 88.6781C188.952 88.6804 188.952 88.6828 188.952 88.6851L188.954 88.7281V88.7284C188.975 89.1246 189.023 89.519 189.096 89.9089L189.097 89.916L189.104 89.9505C189.105 89.9544 189.105 89.9582 189.106 89.9622C189.108 89.9715 189.11 89.981 189.112 89.9904C189.113 89.9959 189.114 90.0011 189.115 90.0065C189.116 90.014 189.118 90.0215 189.12 90.0291C189.341 91.095 189.739 92.117 190.296 93.0537C193.624 92.1431 196.715 90.5241 199.354 88.3084C197.841 87.5811 196.441 86.6419 195.195 85.5193C196.775 86.3734 198.437 87.0694 200.155 87.5972C201.764 86.0906 202.805 84.6029 203.067 83.5254C196.191 82.9609 191.184 82.1699 191.184 82.1699Z" fill="#B78C63"/>
<path d="M211.784 45.499C209.493 45.5019 207.214 45.8371 205.02 46.4942C203.6 46.9186 202.219 47.4597 200.89 48.1119C199.62 48.8753 198.45 49.7915 197.405 50.8397C199.368 50.1321 204.683 48.4409 210.655 48.4413C215.162 48.4415 220.043 49.4047 224.136 52.4805C231.503 58.0156 232.228 72.1055 229.356 83.0371C230.855 82.7693 232.334 82.4045 233.785 81.945L235.607 68.7801C235.32 66.0847 233.773 56.0487 226.398 49.9982C221.127 46.7694 216.228 45.4996 211.784 45.499Z" fill="#A76348"/>
<path d="M205.019 46.4941C203.602 46.9177 202.222 47.4579 200.894 48.1091L200.89 48.1118C202.219 47.4596 203.6 46.9185 205.019 46.4941Z" fill="#C0B29D"/>
<path d="M211.784 45.498C209.493 45.501 207.214 45.8365 205.02 46.4937C207.214 45.8366 209.493 45.5014 211.784 45.4985C216.228 45.4991 221.127 46.7689 226.398 49.9977L226.395 49.9953C221.124 46.7677 216.228 45.498 211.784 45.498Z" fill="#99533B"/>
<path d="M212.105 45.2812C207.447 45.2812 203.78 46.3776 200.895 48.109C202.222 47.4578 203.602 46.9177 205.02 46.4941C207.214 45.8369 209.493 45.5014 211.784 45.4984C216.228 45.4984 221.124 46.7681 226.396 49.9957C223.008 47.2183 218.392 45.2812 212.105 45.2812Z" fill="#B4A48E"/>
<path d="M236.202 88.6013C236.202 88.6057 236.202 88.6111 236.201 88.6153C236.202 88.6107 236.202 88.6061 236.202 88.6013ZM236.205 88.5114C236.205 88.5181 236.205 88.524 236.205 88.5306C236.205 88.5243 236.205 88.5178 236.205 88.5114ZM236.207 88.4192C236.207 88.4277 236.207 88.4352 236.207 88.4439C236.207 88.4356 236.207 88.4274 236.207 88.4192ZM236.208 88.3248C236.208 88.3354 236.208 88.345 236.208 88.3557C236.208 88.3454 236.208 88.335 236.208 88.3248Z" fill="#A76348"/>
<path d="M233.785 81.9443C232.334 82.4038 230.855 82.7687 229.356 83.0365C228.951 84.5928 228.453 86.1236 227.864 87.6207C228.817 87.4081 229.774 87.199 230.749 87.0261C229.696 87.513 228.624 87.9686 227.542 88.4056C226.283 91.3612 224.727 93.8103 222.964 95.3976C219.804 98.242 215.35 99.3236 210.74 99.3236C203.098 99.3236 195.028 96.3511 191.713 93.508C191.713 93.508 199.395 102.187 212.046 102.187C212.282 102.187 212.519 102.184 212.759 102.178C220.741 101.976 226.938 99.6189 231.499 96.1919C231.527 95.3797 231.606 94.6843 231.81 94.1549C232.082 93.4448 232.581 93.0313 233.481 93.0312C233.625 93.0318 233.77 93.0412 233.913 93.0595C234.196 93.0939 234.475 93.1516 234.749 93.2322C235.615 91.8533 236.114 90.2774 236.2 88.653C236.2 88.6511 236.2 88.6488 236.2 88.6468C236.201 88.6362 236.201 88.6256 236.201 88.6149C236.202 88.6106 236.202 88.6053 236.202 88.6009C236.202 88.5919 236.203 88.5825 236.203 88.5735C236.203 88.5677 236.203 88.562 236.204 88.5563C236.204 88.5476 236.204 88.539 236.204 88.5302C236.205 88.5235 236.205 88.5177 236.205 88.511L236.206 88.4874C236.206 88.4802 236.206 88.4727 236.206 88.4655C236.206 88.4582 236.206 88.4507 236.207 88.4435C236.207 88.4348 236.207 88.4273 236.207 88.4187C236.207 88.4125 236.207 88.4062 236.207 88.4C236.208 88.3908 236.208 88.3817 236.208 88.3725C236.208 88.3668 236.208 88.361 236.208 88.3553C236.208 88.3446 236.208 88.335 236.208 88.3244C236.208 88.3198 236.208 88.3154 236.208 88.3109C236.208 88.2959 236.208 88.281 236.208 88.2662C236.196 86.5717 235.725 84.912 234.846 83.4613C234.789 83.3644 234.73 83.2681 234.67 83.1722C234.4 82.7453 234.105 82.3353 233.785 81.9443Z" fill="#9B693F"/>
<path d="M224.023 89.1131C224.023 89.1131 219.575 94.8516 211.59 94.5067C203.595 94.1625 201.233 88.7588 201.233 88.7588C201.638 88.8378 202.092 88.8969 202.606 88.9654C207.913 89.5661 218.587 89.2905 222.52 89.1624C223.469 89.1328 224.023 89.1131 224.023 89.1131Z" fill="#1C2226"/>
<path d="M222.52 89.1618C220.554 90.8253 216.877 93.1382 211.728 92.9119C206.797 92.6953 204.01 90.5692 202.606 88.9648C207.913 89.5656 218.587 89.2899 222.52 89.1618Z" fill="#E3E6E8"/>
<path d="M195.195 85.5195C197.902 87.0037 200.816 87.899 203.752 88.5417C206.698 89.1391 209.698 89.4405 212.706 89.4415L214.963 89.4178C215.716 89.4003 216.465 89.2971 217.219 89.2559C218.732 89.216 220.218 88.9094 221.731 88.7585C223.234 88.549 224.721 88.2212 226.235 87.9831C227.728 87.6593 229.217 87.2981 230.749 87.0265C229.35 87.6736 227.917 88.2651 226.471 88.8315C224.989 89.2755 223.516 89.7976 221.995 90.1328C218.949 90.8544 215.829 91.2238 212.698 91.2338C209.562 91.1844 206.409 90.8141 203.401 89.8914C200.415 88.9696 197.486 87.625 195.195 85.5195Z" fill="#995942"/>
<path d="M229.53 86.0222C229.825 85.6571 230.43 85.6741 230.801 86.0235C230.968 86.1725 231.1 86.3554 231.189 86.5599C231.278 86.7643 231.321 86.9855 231.316 87.2083C231.313 87.561 231.191 87.9025 230.971 88.1789C230.738 88.4819 230.407 88.6958 230.035 88.7846C229.84 88.4929 229.697 88.1707 229.61 87.8314C229.544 87.6222 229.512 87.4037 229.516 87.1844C229.509 87.046 229.552 86.9095 229.64 86.8014C229.719 86.6829 229.779 86.4223 229.53 86.0222Z" fill="#995942"/>
<path d="M196.166 85.1287C195.917 85.5288 195.977 85.7893 196.057 85.908C196.144 86.0161 196.188 86.1524 196.18 86.2908C196.184 86.5101 196.153 86.7286 196.087 86.9378C196 87.2771 195.856 87.5993 195.661 87.891C195.289 87.8022 194.958 87.5883 194.725 87.2853C194.505 87.0089 194.384 86.6675 194.38 86.3148C194.375 86.092 194.419 85.8709 194.508 85.6664C194.597 85.4619 194.729 85.2789 194.895 85.13C195.267 84.7805 195.871 84.7636 196.166 85.1287Z" fill="#995942"/>
<path d="M212.733 78.0518C209.93 78.0518 207.657 79.2094 207.657 80.6369C207.657 82.0648 209.93 83.2224 212.733 83.2224C215.537 83.2224 217.809 82.0648 217.809 80.6369C217.809 79.2094 215.537 78.0518 212.733 78.0518Z" fill="#C1876C"/>
<path d="M222.008 89.8755H203.725C203.821 89.385 203.949 88.9014 204.111 88.4283C204.874 86.2068 206.178 84.8781 207.32 84.0953C208.001 83.6155 208.764 83.2633 209.572 83.0557C213.08 84.5539 215.949 83.2811 215.949 83.2811C221.21 84.3285 222.008 89.8755 222.008 89.8755Z" fill="#262E35"/>
<path d="M218.58 79.2764C218.817 79.9838 218.773 80.7548 218.457 81.4311C218.121 82.1166 217.619 82.7079 216.996 83.1517C215.769 84.0593 214.246 84.44 212.759 84.4638C211.272 84.4419 209.749 84.0605 208.521 83.1531C207.898 82.7092 207.396 82.1178 207.059 81.4322C206.743 80.7555 206.7 79.9839 206.938 79.2764C207.08 80.7023 208.052 81.6193 209.143 82.1777C210.274 82.7084 211.509 82.9838 212.76 82.9842C214.01 82.9847 215.245 82.7101 216.377 82.1801C217.468 81.6221 218.439 80.7022 218.58 79.2764Z" fill="#995942"/>
<path d="M207.32 84.0957C206.178 84.8785 204.874 86.2072 204.111 88.4287C205.403 88.751 206.73 88.9161 208.063 88.9203C213.101 88.9203 215.861 86.4118 212.759 85.946C209.988 85.535 208.193 84.6375 207.32 84.0957Z" fill="#424B53"/>
<path d="M242.126 125.966C241.103 129.184 239.3 131.853 236.347 133.339C236.099 133.463 235.852 133.581 235.612 133.693C225.584 138.39 221.33 132.77 220.617 127.316C220.478 126.271 220.471 125.213 220.595 124.166C220.903 121.639 222.404 118.865 224.183 116.071L224.184 116.065C225.457 114.064 226.874 112.051 228.095 110.11L228.102 110.104C229.268 108.234 230.263 106.441 230.786 104.775C232.084 100.631 231.03 96.1795 231.81 94.155C232.123 93.3383 232.735 92.914 233.913 93.0595C238.019 93.5546 240.609 99.0544 240.609 99.0544C240.609 99.0544 245.5 115.443 242.126 125.966Z" fill="#B7765A"/>
<path d="M233.481 93.0312C232.581 93.0314 232.082 93.4448 231.81 94.155C232.715 96.0081 235.474 102.787 233.514 113.189C233.491 113.31 233.468 113.437 233.438 113.558C232.859 116.518 232.016 118.947 230.99 120.89C228.604 125.424 225.203 127.363 221.598 127.363C221.272 127.363 220.945 127.348 220.616 127.316C221.142 131.338 223.592 135.449 228.864 135.449C229.812 135.441 230.756 135.325 231.677 135.101L239.572 97.286C238.451 95.6314 236.478 93.3689 233.913 93.0595C233.77 93.0413 233.625 93.0319 233.481 93.0312Z" fill="#A76348"/>
<path d="M238.075 142.604C238.075 142.604 240.594 154.257 249.598 155.864C258.602 157.472 268.496 146.366 268.496 146.366L238.075 142.604Z" fill="#B7765A"/>
<path d="M264.682 149.971C262.513 151.776 259.607 153.825 256.462 155.016L256.463 155.017C259.608 153.826 262.515 151.776 264.683 149.971L264.682 149.971Z" fill="#B2B2B2"/>
<path d="M238.656 144.582C238.833 145.098 239.055 145.689 239.326 146.326C242.946 146.535 251.826 147.811 256.462 155.017C259.607 153.825 262.513 151.776 264.682 149.971L238.656 144.582Z" fill="#A76348"/>
<path d="M281.112 93.0981L269.63 148.098C269.477 148.833 269.038 149.478 268.408 149.891C267.777 150.304 267.009 150.451 266.27 150.3L232.849 143.379C232.111 143.225 231.465 142.785 231.052 142.156C230.64 141.527 230.495 140.761 230.649 140.026L242.131 85.0262C242.217 84.6191 242.391 84.2357 242.641 83.9027C242.891 83.5696 243.211 83.2951 243.579 83.0981C244.165 82.787 244.842 82.6902 245.492 82.8247L278.912 89.745C279.65 89.8995 280.296 90.3394 280.709 90.9681C281.121 91.5968 281.267 92.3629 281.112 93.0981Z" fill="#444343"/>
<path d="M267.857 144.036L277.859 96.1237C277.926 95.8065 277.929 95.4794 277.868 95.161C277.808 94.8425 277.685 94.5391 277.506 94.268C277.328 93.9969 277.098 93.7635 276.829 93.581C276.56 93.3985 276.258 93.2705 275.939 93.2044L246.833 87.1775C246.515 87.1116 246.186 87.1089 245.867 87.1695C245.547 87.2301 245.242 87.3528 244.97 87.5306C244.698 87.7084 244.464 87.9378 244.281 88.2058C244.098 88.4738 243.97 88.775 243.904 89.0923L233.901 137.004C233.767 137.645 233.894 138.313 234.254 138.86C234.614 139.408 235.178 139.79 235.821 139.924L264.927 145.951C265.571 146.084 266.241 145.956 266.79 145.597C267.34 145.238 267.723 144.676 267.857 144.036Z" fill="#A8D5DD"/>
<path d="M243.579 83.0986C243.211 83.2956 242.891 83.5701 242.641 83.9032C242.391 84.2362 242.217 84.6196 242.131 85.0267L239.572 97.2868L231.677 135.102L230.649 140.027C230.494 140.762 230.639 141.528 231.052 142.157C231.465 142.786 232.111 143.226 232.849 143.38L266.27 150.3C266.456 150.339 266.646 150.358 266.836 150.358C267.154 150.357 267.469 150.305 267.77 150.204C267.279 148.841 266.748 147.392 266.194 145.883C265.948 145.963 265.692 146.004 265.433 146.004C265.263 146.004 265.094 145.986 264.927 145.952L235.821 139.925C235.178 139.791 234.614 139.408 234.254 138.861C233.894 138.313 233.767 137.646 233.901 137.005L243.904 89.0931C243.975 88.7497 244.119 88.4253 244.327 88.1418C244.534 87.8582 244.799 87.622 245.106 87.4489L245.103 87.4421C244.549 85.8784 244.042 84.4237 243.579 83.0986Z" fill="#353434"/>
<path d="M245.106 87.4482C244.799 87.6213 244.534 87.8576 244.326 88.1411C244.119 88.4246 243.975 88.749 243.904 89.0924L233.901 137.005C233.767 137.645 233.894 138.313 234.254 138.86C234.614 139.408 235.178 139.79 235.821 139.924L264.927 145.951C265.094 145.985 265.263 146.003 265.433 146.003C265.692 146.003 265.948 145.962 266.194 145.883C262.461 135.63 257.664 122.439 253.246 110.196L242.23 107.914L242.754 105.4L252.224 107.36C249.554 99.9517 247.071 93.0162 245.106 87.4482Z" fill="#96CAD4"/>
<path d="M245.809 90.7701L245.284 93.2852L273.935 99.2182L274.46 96.7032L245.809 90.7701Z" fill="white"/>
<path d="M244.913 95.0602L244.388 97.5752L273.039 103.508L273.564 100.993L244.913 95.0602Z" fill="white"/>
<path d="M270.881 113.848L242.23 107.915L242.754 105.4L271.406 111.333L270.881 113.848Z" fill="white"/>
<path d="M284.622 122.295C283.815 124.795 281.49 127.764 276.897 126.465C272.624 125.25 270.189 124.253 269.41 122.099C268.6 119.897 269.567 117.391 271.559 116.153L271.757 116.029C274.974 114.215 279.617 114.605 279.617 114.605C283.051 115.037 284.859 117.932 284.972 120.166C284.986 120.891 284.867 121.612 284.622 122.295Z" fill="#B7765A"/>
<path d="M281.169 133.048C280.242 135.056 278.202 137.012 274.575 135.986C270.769 134.909 268.598 134.014 267.891 132.099C267.304 130.496 267.774 128.723 268.932 127.517C269.239 127.184 269.598 126.902 269.993 126.681C272.868 125.063 277 125.411 277 125.411C280.072 125.804 281.689 128.38 281.782 130.377C281.811 131.038 281.631 132.054 281.169 133.048Z" fill="#B7765A"/>
<path d="M278.146 140.401C277.463 142.084 275.81 143.832 272.763 142.959C269.705 142.094 267.949 141.378 267.39 139.835C267.195 139.283 267.14 138.691 267.23 138.112C267.32 137.534 267.553 136.986 267.907 136.519C268.221 136.094 268.62 135.738 269.08 135.475C271.384 134.171 274.714 134.453 274.714 134.453C275.72 134.573 276.654 135.036 277.356 135.764C278.057 136.492 278.484 137.44 278.563 138.446C278.566 139.12 278.424 139.786 278.146 140.401Z" fill="#B7765A"/>
<path d="M286.48 113.133C285.355 115.212 283.105 117.067 279.299 115.991C275.026 114.775 272.592 113.778 271.812 111.625C271.132 109.779 271.71 107.723 273.08 106.376C273.4 106.054 273.763 105.777 274.16 105.554C277.376 103.74 282.019 104.13 282.019 104.13C285.451 104.573 287.261 107.457 287.375 109.691C287.415 110.535 287.151 111.87 286.48 113.133Z" fill="#B7765A"/>
<path d="M267.907 136.519C267.443 137.142 267.19 137.896 267.183 138.673C267.182 139.069 267.252 139.463 267.39 139.835C267.949 141.378 269.705 142.094 272.763 142.959C273.264 143.108 273.783 143.186 274.305 143.191C276.385 143.191 277.588 141.775 278.146 140.401C277.249 140.52 276.346 140.583 275.441 140.587C270.107 140.587 268.429 138.095 267.907 136.519Z" fill="#A76348"/>
<path d="M268.932 127.517C268.107 128.367 267.644 129.502 267.638 130.684C267.64 131.167 267.725 131.645 267.891 132.099C268.328 133.284 269.327 134.078 270.927 134.767C271.908 134.537 272.914 134.423 273.922 134.428C274.41 134.428 274.714 134.454 274.714 134.454C275.295 134.52 275.856 134.703 276.365 134.992C276.873 135.28 277.317 135.667 277.671 136.131C279.43 135.711 280.549 134.391 281.169 133.048C280.94 133.052 280.716 133.054 280.494 133.054C271.019 133.054 269.202 129.499 268.932 127.517Z" fill="#A76348"/>
<path d="M273.922 134.428C272.914 134.423 271.908 134.537 270.927 134.767C272.116 135.249 273.334 135.657 274.575 135.986C275.191 136.167 275.829 136.262 276.471 136.268C276.875 136.269 277.278 136.223 277.671 136.131C277.317 135.667 276.873 135.28 276.365 134.991C275.856 134.703 275.295 134.52 274.714 134.454C274.714 134.454 274.41 134.428 273.922 134.428Z" fill="#A76348"/>
<path d="M271.559 116.153C270.819 116.614 270.207 117.254 269.782 118.013C269.356 118.771 269.129 119.625 269.123 120.494C269.124 121.042 269.221 121.585 269.41 122.099C269.981 123.678 271.443 124.636 273.866 125.513C274.582 125.424 275.303 125.379 276.024 125.38C276.626 125.38 277 125.411 277 125.411C278.088 125.54 279.112 125.994 279.936 126.712C282.561 126.304 284.018 124.168 284.622 122.295C283.929 122.382 283.231 122.425 282.532 122.421C280.709 122.399 278.893 122.209 277.106 121.853C270.995 120.695 271.16 117.521 271.559 116.153Z" fill="#A76348"/>
<path d="M276.024 125.38C275.302 125.38 274.582 125.424 273.866 125.513C274.748 125.833 275.757 126.141 276.896 126.465C277.586 126.668 278.301 126.774 279.02 126.781C279.327 126.781 279.633 126.758 279.936 126.712C279.111 125.994 278.088 125.541 277 125.411C277 125.411 276.626 125.38 276.024 125.38Z" fill="#A76348"/>
<path d="M273.08 106.376C272.593 106.851 272.206 107.417 271.939 108.042C271.673 108.667 271.532 109.337 271.526 110.016C271.526 110.565 271.623 111.109 271.812 111.625C272.592 113.778 275.026 114.775 279.299 115.991C279.989 116.193 280.704 116.3 281.424 116.307C283.97 116.307 285.583 114.791 286.48 113.133C276.154 113.003 273.641 108.924 273.08 106.376Z" fill="#A76348"/>
</svg>
